<?xml version="1.0" standalone="no"?><!DOCTYPE svg PUBLIC "-//W3C//DTD SVG 1.1//EN" "http://www.w3.org/Graphics/SVG/1.1/DTD/svg11.dtd"><svg t="1722216625561" class="icon" viewBox="0 0 1024 1024" version="1.1" xmlns="http://www.w3.org/2000/svg" p-id="19521" xmlns:xlink="http://www.w3.org/1999/xlink" width="256" height="256"><path d="M0 0h1024v1024H0z" fill="#FFFFFF" fill-opacity=".01" p-id="19522"></path><path d="M873.498947 365.473684c42.253474-0.741053 73.229474 14.376421 90.637474 38.696421v0.485053L942.214737 420.648421c-1.616842-3.866947-5.497263-7.531789-8.596211-10.037895-20.089263-16.235789-46.888421-29.264842-82.768842-18.634105-33.872842 10.037895-54.932211 32.970105-66.304 65.697684-2.856421 8.192-5.968842 26.826105-5.968842 38.696421 0 15.925895 2.411789 27.230316 7.154526 39.424 13.716211 35.193263 38.453895 57.007158 80.626527 64.013474 7.141053 1.199158 18.027789 1.509053 25.519158 0.242526 6.992842-1.185684 13.850947-2.223158 19.806315-4.540631 11.102316-4.338526 22.177684-10.967579 29.103158-19.590737l9.054316-11.937684 0.485053 0.471579L970.105263 578.56c-17.030737 30.881684-70.251789 54.528-120.697263 42.037895-69.820632-17.259789-111.521684-88.32-94.221474-158.140632 9.741474-39.343158 33.077895-69.618526 67.031579-84.560842a161.953684 161.953684 0 0 1 31.717053-10.266947l19.563789-2.15579zM454.4 501.167158v-0.242526c29.076211-5.443368 42.873263-11.250526 55.578947-33.199158 13.783579-23.834947 5.766737-63.285895-11.223579-76.934737a83.550316 83.550316 0 0 0-32.673684-15.993263c-13.783579-3.476211-30.922105-3.098947-48.181895-3.098948h-57.249684l-0.242526 245.557895 25.061053 0.242526v-114.189473h41.728l67.031579 114.189473h30.531368l-70.359579-116.331789z m-68.944842-20.789895v-85.76c51.173053-0.080842 97.104842-6.144 104.245895 39.181474 1.953684 12.409263-3.557053 22.743579-8.353685 28.901052-16.491789 21.207579-58.058105 17.973895-95.89221 17.677474zM719.642947 430.214737c-1.347368-8.245895-2.425263-15.427368-5.254736-21.975579-18.970947-44.005053-84.210526-36.783158-146.688-36.554105V617.498947h24.805052l0.242526-114.189473c56.602947 0.067368 104.178526 2.816 121.397895-37.025685 3.799579-8.730947 7.653053-22.743579 5.497263-36.069052z m-34.586947 31.528421c-15.872 21.477053-54.703158 18.944-92.308211 18.634105v-85.76c50.458947-0.080842 92.968421-5.106526 99.94779 39.653053 1.778526 11.466105-3.301053 21.598316-7.639579 27.486316zM292.432842 581.429895v-126.383158h-22.905263v27.001263s-8.286316-9.633684-11.452632-12.180211c-7.626105-6.144-16.087579-11.924211-26.475789-15.292631-5.025684-1.616842-10.536421-2.398316-16.222316-3.341474-16.653474-2.762105-33.104842 2.128842-44.126316 6.925474-22.487579 9.795368-37.497263 28.577684-44.840421 53.517474-1.805474 6.130526-1.805474 12.773053-2.869894 19.819789-1.953684 13.029053 3.368421 28.240842 6.925473 36.554105 12.867368 29.992421 50.526316 58.826105 97.077895 47.292632a74.684632 74.684632 0 0 0 29.58821-14.565053c3.018105-2.425263 12.395789-13.850947 12.39579-13.850947 0.094316 39.653053 0.107789 67.772632-24.333474 83.132631-28.294737 17.785263-66.357895 9.391158-88.252631-7.410526-4.015158-3.085474-9.525895-7.168-11.681685-11.951158l-0.956631-0.714105-14.322526 15.535158-2.613895 2.627368 8.353684 8.124632c9.620211 7.68 19.792842 14.322526 32.673684 18.863158 9.162105 3.233684 19.159579 3.664842 30.288842 5.497263l14.08-0.242526 11.210106-0.714106c10.792421-2.048 20.412632-4.176842 28.389052-8.838736 16.249263-9.498947 27.378526-20.129684 34.586948-38.696422 7.100632-18.337684 5.483789-45.568 5.483789-70.709894z m-23.147789-33.441684a76.261053 76.261053 0 0 1-4.769685 15.050105c-8.650105 19.617684-26.718316 29.372632-51.280842 33.441684-11.088842 1.832421-22.191158-2.128842-28.860631-5.497263-22.393263-11.317895-44.368842-39.653053-33.145263-75.493053a62.868211 62.868211 0 0 1 36.24421-39.882105c5.093053-2.155789 11.048421-3.826526 16.936421-3.826526 39.114105 0 58.570105 19.267368 64.87579 52.075789 1.360842 7.060211 1.509053 17.017263 0 24.117895z" fill="#234C5A" p-id="19523"></path><path d="M53.894737 389.968842l52.358737-52.439579 52.358737 52.439579-52.358737 52.426105zM279.848421 416.363789l-30.261895-30.302315 30.248421-30.288842 30.248421 30.288842z" fill="#43BFBD" p-id="19524"></path><path d="M269.015579 370.081684h-14.888421l13.271579 13.743158H111.386947l31.178106-31.663158H112.195368l-35.301052 35.84 35.301052 35.84h30.369685l-31.178106-31.663158h156.01179l-13.271579 13.743158h14.888421l17.313684-17.92z" fill="#234C5A" p-id="19525"></path></svg>