<?xml version="1.0" standalone="no"?><!DOCTYPE svg PUBLIC "-//W3C//DTD SVG 1.1//EN" "http://www.w3.org/Graphics/SVG/1.1/DTD/svg11.dtd"><svg t="1722217465453" class="icon" viewBox="0 0 1364 1024" version="1.1" xmlns="http://www.w3.org/2000/svg" p-id="26439" xmlns:xlink="http://www.w3.org/1999/xlink" width="341" height="256"><path d="M547.328 290.304L477.696 302.08l-64 27.648L360.448 363.52l-51.2 62.976-28.672 30.72-27.648 10.752-7.168-18.432 12.8-18.944 2.56-26.112 8.704 0.512 9.728 8.704-2.56-26.624-10.752-7.168 0.512-10.24-25.088 13.824-22.528 26.624-4.608 24.064 9.728 18.944 9.216 32.768 18.432 8.704 18.944-1.024 18.432-10.752-11.776 61.952 11.264 67.584-13.312 31.744-44.032 47.616 7.68 28.16 20.48 32.768 39.424 27.648 20.48 3.072 23.04 1.024-14.336 59.392 53.248 21.504 66.048 8.704 22.528-14.848 1.024-39.936 25.6-41.472 2.048-33.28 60.928 4.096 56.32-5.12-56.32 33.792 9.728 40.96 35.328 55.808 34.816 14.848 27.648-11.264 11.264-22.528 58.368-44.544 11.264 9.728 91.648 3.584 18.432-14.848 2.048-26.112-6.656-11.264-4.096-70.656-30.72-60.928 5.12-26.624 18.432 9.728 51.2 48.128 25.6 2.048 27.648-11.264 27.648-20.992 13.824-45.056 81.92 5.12 49.152-18.944 39.936-37.376 28.672-54.272 7.168-63.488-6.144-73.728-15.872-66.048L1157.12 266.24l-21.504-7.168-38.4 41.472-34.816 11.776-30.72-50.176-30.72-27.648-16.384-10.752L918.528 168.96 865.28 140.288l-53.248-4.096-61.952 10.752-53.76 18.432-37.376 30.72-29.696 35.328-30.72 8.704-51.2 50.176" fill="#FFFF00" p-id="26440"></path><path d="M345.6 447.488c-59.392 69.632-46.592 154.112-29.696 236.544-8.704-22.016-17.92-44.544-26.624-66.56l-9.728-61.44c1.024-20.992 2.048-41.472 3.072-62.976L307.2 433.152l37.888-55.808 58.368-49.152L467.968 302.08l75.264-9.728-70.144 79.872C417.28 390.656 384 402.432 345.6 447.488" fill="#FFFFCC" p-id="26441"></path><path d="M626.176 235.52c-41.472 40.448-64 71.168-90.624 118.272-18.944 33.792-39.936 66.56-59.904 99.84-10.24 16.896-11.264 31.232-13.824 50.176l-29.184-34.816 13.824-41.472 47.616-84.992L593.92 243.712c11.264-2.048 21.504-5.12 32.256-8.192m204.8-99.84c-33.28 12.288-88.064 16.896-92.16 54.784-3.072 26.624 2.048 40.96 18.432 69.632-40.448-41.472-50.176-34.816-128-22.016l33.792-47.616 58.368-36.352 75.264-16.896 34.304-1.536" fill="#FFFFCC" p-id="26442"></path><path d="M922.112 650.752c11.264 6.656 11.264 11.776 9.216 16.384 8.704-3.584 17.408-7.168 26.624-10.752l16.896-22.528 12.288-32.768-16.384-11.776-70.144 9.216c-2.048 4.608-3.584 9.728-5.12 14.336l1.536 19.968c2.56 3.584 4.096 8.192 6.656 11.776 3.584 2.048 7.168 3.584 10.752 5.12 2.56 0.512 5.632 0.512 7.68 1.024m-6.144-120.32c-34.816 10.24-34.816 12.8-45.568 48.128 14.336-22.016 24.064-33.28 45.568-48.128m233.984-261.12c-6.144 3.072-12.288 4.096-16.384 10.24-8.704 12.288-15.872 22.528-29.696 31.232-7.168 4.096-14.336 7.168-21.504 9.728-6.144 2.048-10.24 0-15.36 3.584 3.584 0.512 6.144 1.024 9.728 1.536h20.48l25.6-15.872 14.848-15.872 12.288-24.576M589.312 347.136c-13.824 37.888-26.112 70.656-47.104 104.448 26.624-28.672 43.008-53.76 58.368-86.528 5.632-12.8 7.168-27.648 24.064-22.016 1.024 12.8 3.584 25.6 4.096 37.888 9.216-64.512 34.304-91.648 93.696-116.736l-49.664 5.632-47.104 10.752-23.04 33.792-13.312 32.768m114.688-1.024c12.8 59.904 31.232 117.248 38.912 178.176 5.12 39.424 5.632 58.368-14.336 92.672-21.504-1.536-34.816 1.024-56.32 8.192-83.968 27.136-132.096 67.584-187.904-13.312l54.272 25.6c12.8-2.56 26.112-5.12 38.4-7.68 22.528-13.312 45.568-26.624 68.096-39.936l53.248-10.752 17.408-71.68-12.288-94.72-1.536-44.544c-0.512-7.68 1.024-14.848 2.048-22.016m143.36 370.176c-7.168 48.64 16.384 74.752 6.656 88.064-3.072 3.584-6.144 10.752-10.752 12.288-14.848 6.656-34.816-1.536-36.352 2.56h-48.64l-19.456-8.192 29.696-34.816c9.728-20.992 19.456-41.984 29.184-63.488l18.944-64h9.728l20.992 67.584" fill="#CCCC00" p-id="26443"></path><path d="M765.952 574.976c3.584 22.016 11.264 27.136 20.992 49.152-6.656 34.816-18.432 76.288-31.232 107.52-5.632 12.8-10.24 19.968-19.968 30.208-16.896 16.896-33.792 31.744-52.736 46.592-13.824 10.752-23.552 5.12-40.448 3.072-7.168 12.8-9.216 19.968-22.528 26.624-19.968 10.24-38.4-11.776-54.784-24.576 11.264 18.432 23.04 35.84 34.304 54.272 8.192 7.68 15.872 14.848 24.064 22.528l19.968 3.072 26.624-16.384c4.608-9.216 9.728-17.92 14.336-26.624 10.24-7.68 19.968-14.848 29.696-22.528 11.776-10.752 24.576-20.992 36.352-31.232l23.04-33.28 20.992-38.912c9.216-26.624 17.92-53.76 26.624-80.384 1.024-10.24 1.536-20.48 2.56-30.72-11.264-4.608-22.528-10.24-33.792-14.848-6.656-9.216-15.872-15.872-24.064-23.552m-267.776 156.16c37.888 0 77.824-2.048 112.128-17.92 9.728-14.848 19.456-26.624 31.232-39.936-11.264 20.48-14.336 32.256-17.408 55.296l-11.264 16.384c-28.16 1.024-56.32 1.536-85.504 2.56l-27.648-3.072-3.072-3.072c1.024-3.584 1.536-7.168 1.536-10.24m-5.632-26.624l-3.072-26.624c-6.144 38.912-4.608 64.512-22.528 99.84-13.312 15.36-29.696 29.696-48.64 36.864 1.536 9.728 2.048 15.36 1.024 22.528-3.584 25.088-53.76 13.824-74.24 12.8l99.84 25.6 22.528-9.216c2.56-14.336 4.608-28.672 7.68-43.008l20.992-38.912 3.584-24.064-7.168-55.808M436.736 485.376c-1.024 18.944-2.56 26.624 6.144 43.008 10.752 20.992 23.552 41.472 34.816 61.952l3.584-41.472c-14.336-20.992-29.696-41.984-44.544-63.488m-153.6 142.848c-3.584 6.656-6.144 13.824-9.728 20.48 9.216 30.208 16.896 49.152 33.792 75.264-3.072 10.752-5.12 15.36-11.776 24.064-14.848-2.56-28.16-3.072-43.008-3.072 16.896 12.8 33.792 26.112 49.664 38.912 8.192-1.536 16.384-3.072 24.576-4.096l24.576-24.576-34.816-54.784c-11.264-24.064-22.016-48.128-33.28-72.192m866.816-368.64c10.24 45.568 23.552 87.552 22.016 134.656-1.536 57.344-12.288 130.048-65.536 164.352-59.392 38.912-129.536 20.48-195.072 3.584l79.872 33.28c25.088 1.536 49.664 2.56 74.752 3.584 16.896-4.608 33.792-10.24 50.688-14.848 13.312-11.264 26.624-22.016 39.936-33.28l29.696-62.976 11.264-72.192c-3.072-23.552-5.632-47.616-9.216-71.168l-16.384-70.144c-7.168-4.608-14.848-10.24-22.016-14.848M260.608 395.776c-26.624 17.92-37.888 25.6-34.304 57.856l8.192 29.184 11.264 7.68 14.336 4.608 25.6-6.144c4.096-13.312 8.704-27.136 12.8-40.96L262.144 465.92h-8.704c-3.584-4.608-6.144-9.728-9.728-14.336l11.264-16.896 6.144-32.256c2.56 1.024 5.12 1.536 7.68 2.56 3.584 2.56 6.144 4.608 9.728 7.168l-1.536-16.896-5.632-10.24c-2.048-2.048-4.096-3.584-6.144-5.12l-4.608 15.872M867.84 138.24c24.064 22.528 53.76 41.472 72.704 69.12 7.68 10.752 15.872 15.872 0 30.72 16.896-4.608 23.04-4.096 36.352-2.56 24.576 3.072 47.104 37.376 48.64 62.464-0.512 2.56-6.656 7.68-25.6 12.8-0.512 1.024-10.752-1.536-10.752-0.512 2.048 5.12 4.608 6.144 8.704 8.704 1.024 5.632 1.536 15.36 5.12 21.504 11.776 0 23.552 1.024 34.816 3.584 3.584 6.656 3.584 12.8 3.072 19.456l13.312-2.56c-1.536-10.24-2.56-20.48-3.584-30.72 3.584-6.656 8.192-13.312 11.776-19.968l-17.408-38.912c-11.264-10.752-22.016-20.992-33.28-31.232h-3.584c-12.288-7.68-24.576-15.36-36.864-22.528l-60.416-49.152-43.008-30.208m39.936 184.32c-1.536 2.56-3.584 5.632-5.632 8.192 10.24 9.728 14.848 15.872 18.944 29.184l-33.792 16.896-28.672 27.136c-12.288-6.656-15.872-11.776-22.016-25.088-7.168 2.048-13.824 3.584-19.456 1.536 3.584 0 6.144-1.024 9.728-3.584l18.432-18.944 32.256-24.576 20.992-6.656c2.048-0.512 7.168-2.56 9.216-4.096" fill="#CCCC00" p-id="26444"></path><path d="M939.008 356.352c-35.84 18.944-70.656 38.912-88.576 75.776 0-47.104 47.104-67.584 88.576-75.776m-95.744-92.16c-26.624 18.432-45.568 55.296-43.008 90.624-8.704-31.232-5.632-60.416 20.992-81.92 4.096-2.56 9.216-4.096 13.312-6.656 3.072-0.512 5.632-1.024 8.704-2.048" fill="#CCCC00" p-id="26445"></path><path d="M1202.688 348.672c-4.608-30.72-12.8-60.416-24.064-81.408-1.536-2.56-3.584-5.12-5.632-7.68-5.632-5.12-13.824-10.752-22.016-13.312-9.216-3.072-18.432-3.584-26.112 0-2.048 1.024-3.584 2.56-5.12 3.584-4.608 4.608-9.216 11.264-12.8 16.896-4.608 6.656-9.216 13.312-14.848 18.432-6.144 5.12-14.336 8.704-22.016 11.776-3.584-7.68-7.168-14.848-11.264-22.016-5.12-8.192-11.264-15.872-17.408-23.552-4.608-5.632-10.24-10.752-15.872-15.36-5.632-4.096-11.264-7.68-17.92-11.776-17.92-11.264-33.28-24.576-48.64-37.888-7.168-6.144-13.824-12.288-20.992-18.432-36.864-30.208-71.168-45.056-108.032-47.616-36.352-2.56-74.752 7.68-120.32 26.624-22.016 9.216-38.4 19.968-52.224 33.28-13.312 12.288-25.088 26.624-37.888 43.52-7.168 0.512-13.824 1.536-20.48 4.096-7.168 3.072-14.848 7.68-23.552 15.36-6.144 5.12-11.776 11.264-18.432 16.896l-15.872 15.872c-41.472 7.68-74.752 14.848-104.96 26.624-30.72 11.776-57.856 28.16-86.016 53.248-11.264 9.728-20.992 20.48-29.696 32.256-8.704 11.264-15.872 23.04-22.016 34.816-5.632 6.144-11.264 12.288-17.408 17.92-5.632 5.12-11.776 9.728-18.944 12.288-4.096 1.536-5.632 2.56-5.632 2.56s-0.512-1.024-0.512-2.048c10.24-9.728 11.264-24.064 12.288-37.888 1.536 1.536 2.56 3.584 3.584 5.12 1.536 2.048 3.072 4.096 4.096 6.144l6.656 8.704 2.56-11.264c2.048-9.216 3.584-20.992 1.024-31.744-1.536-6.656-4.608-12.8-10.24-17.408 0.512-1.536 1.024-2.56 1.536-3.584 2.048-4.096 3.584-9.216 4.608-13.312l3.072-8.704-8.704 1.536c-11.776 2.048-36.864 15.872-55.296 34.304-6.656 6.656-12.288 14.336-16.384 22.528-3.584 8.192-5.632 16.896-4.096 26.112 1.536 7.68 5.12 14.848 11.776 22.016 1.536 5.12 2.56 9.728 3.584 13.312 1.536 4.096 3.072 8.704 4.608 12.288 5.12 11.264 13.312 17.408 23.04 20.48 7.68 2.56 16.384 2.56 24.576 1.024-2.048 10.24-3.072 19.968-3.072 30.208-0.512 13.824 0 29.696 1.536 48.128 1.024 8.704 2.048 16.896 3.584 25.088-1.536 4.096-3.584 8.704-4.608 12.8l-7.168 19.456-15.872 15.872-14.848 14.848-3.584 3.584c-10.24 9.728-11.776 11.264-9.216 28.672 2.048 11.264 5.12 21.504 10.752 31.232 4.608 9.728 11.264 18.944 19.968 27.136 10.752 10.752 28.16 24.064 46.592 31.232 10.752 3.584 20.992 5.632 31.232 4.096l-1.536 4.608c-1.536 4.096-3.584 8.704-5.12 12.8-12.288 27.136 0.512 41.472 19.968 50.176 10.24 4.096 21.504 7.68 32.768 10.752 2.56 0.512 4.096 1.024 7.168 2.048 12.8 3.584 35.328 10.24 56.32 11.264 22.528 1.536 42.496-3.584 48.128-23.552 2.048-8.192 3.584-13.824 3.584-19.968 0.512-5.632 0.512-11.264-0.512-18.432 6.144-13.824 9.216-18.432 13.824-25.088 1.024-1.536 2.048-3.072 2.56-3.584 4.608-7.168 7.168-12.288 8.192-18.944 1.024-5.632 0-11.264-1.024-19.968 0-1.024-0.512-2.048-0.512-3.584 12.8 1.536 26.112 2.56 38.912 3.072 6.656 0 12.8 0 19.456-0.512-1.536 1.024-3.584 2.048-5.12 2.56l-2.56 1.536c-17.408 9.216-17.92 26.112-12.288 43.008 4.608 15.872 14.848 31.744 20.992 41.472 13.312 19.968 26.112 37.376 41.472 47.104 15.872 9.728 34.304 11.264 57.856-2.048 11.776-6.656 15.872-12.8 20.992-22.016 1.536-3.072 3.584-5.632 5.12-8.704 4.608-3.584 17.408-13.312 29.184-23.552 4.096-3.584 8.192-6.656 12.8-10.752 3.584 2.56 7.168 3.584 11.776 5.12 6.144 1.536 13.312 2.048 22.016 3.072 6.656 0.512 27.648 0.512 41.472 0.512h10.24c13.824 0 25.6-0.512 33.792-5.632 9.216-5.12 14.848-14.336 15.872-31.232 0.512-7.168 0.512-11.776-0.512-16.384-1.024-4.096-3.072-8.192-6.144-13.824 0-7.168-0.512-14.336-0.512-21.504 0-7.68-0.512-15.36-0.512-22.528-0.512-9.216-1.536-16.384-3.072-23.552-2.048-7.168-4.096-13.824-7.68-22.016-2.048-5.12-4.096-10.752-6.144-15.872l-4.608 2.048 1.024-0.512 4.096-1.536c-3.072-8.192-5.632-15.872-10.24-24.064 0.512-1.536 0.512-3.584 1.024-5.12l7.68 7.68 11.264 11.264c8.704 8.704 16.896 16.384 26.624 22.016 10.24 5.632 20.992 9.216 34.816 8.704 14.848-0.512 31.232-7.168 44.032-16.896s23.04-22.016 27.136-36.352l3.584-11.776 3.072-9.728c20.992 3.584 43.52 4.608 65.024 2.56 20.992-2.56 41.472-7.68 58.88-16.896 26.112-13.824 45.056-33.792 58.88-57.856 15.36-26.624 24.064-58.368 27.136-91.136 5.632-25.088 4.608-60.416-1.536-95.232z m-272.384 220.16c-11.776-4.096-20.48-10.24-31.232-16.896 3.072 12.8 4.096 26.624 0.512 39.936-6.144 20.48-15.872 54.784 11.776 60.928 10.752 2.56 15.36 2.048 30.72-5.632-11.776 3.072-18.432 2.048-26.624 0.512-7.68-1.536-11.264-6.144-13.824-11.776 3.072 2.048 7.168 3.072 14.336 4.608 20.48 4.608 40.96-4.608 44.544-19.456 2.56-8.704 2.048-12.8 6.656-24.576 4.096 1.536 8.704 2.56 13.312 3.584l-7.68 25.6c-6.656 22.016-32.768 39.424-55.808 38.912-20.992-0.512-34.816-13.824-49.152-26.624-10.24-9.216-19.456-17.92-29.696-26.624-26.624-8.192-48.128-18.432-72.192-36.352 17.92 20.48 29.184 32.256 53.76 41.984-3.584 36.352-16.384 62.976-26.624 97.28-4.608 15.872-43.008 78.848-53.76 84.48-7.68 4.096-55.296 44.032-64 49.152-6.656 8.704-12.288 20.992-22.528 26.624-30.72 16.384-49.664-14.848-66.56-40.96-7.68-11.776-28.16-46.08-10.24-55.808 17.408-9.216 26.624-15.36 44.032-26.624 2.56 4.608 6.656 9.216 9.728 13.824l-2.048-15.36c-1.024-9.216-1.024-16.896-0.512-26.112s1.536-18.432 2.048-26.624c-2.56 9.216-7.68 18.432-10.752 27.136-1.024 3.584-2.048 6.656-2.56 9.728-39.424 8.192-77.824 8.704-116.736 1.536-2.56-14.336-5.632-29.696-8.192-40.448-1.024 11.776-0.512 45.568-0.512 64 0 14.336-0.512 19.456-8.192 31.744-7.168 11.264-10.24 14.336-19.456 33.792 1.024 12.288 1.024 20.48-2.56 32.256-5.12 19.456-60.416 4.096-74.752 0.512-17.92-4.608-54.784-11.776-45.568-35.84 8.192-20.992 13.312-43.008 17.408-72.192-32.768-47.104-63.488-111.616-69.12-168.96-4.096-44.544-2.048-71.68 7.68-98.816 15.36-43.008 36.352-80.384 71.168-110.08 46.08-40.448 89.088-56.32 156.672-67.072-16.384 18.432-32.256 37.376-49.664 57.856-17.92 20.992-28.16 41.472-39.424 64.512-15.36 31.744-15.36 43.52 5.12 71.168 17.92 24.064 27.136 34.304 34.816 57.856-6.144 13.312-8.704 24.576-11.264 41.984 21.504 24.064 37.888 40.448 58.88 45.056 20.48 4.608 37.888 3.584 56.32-5.12 41.472-20.992 79.36-48.64 125.44-49.152 21.504-52.736 18.944-96.768 9.216-147.968-7.168-34.816-10.24-68.096-11.776-103.424-8.704 36.352-10.752 69.12-3.584 105.472 7.68 44.032 13.824 92.672-7.68 131.584-41.984 3.584-78.336 28.672-116.224 48.64-15.36 7.68-31.232 8.704-48.128 3.584-15.872-4.096-26.624-14.848-43.008-33.792-0.512-19.456 4.096-28.16 12.8-46.08 14.336-28.16 30.208-54.784 47.616-82.432-20.992 26.112-41.472 47.616-58.368 73.216-6.144-18.432-15.872-27.648-30.72-48.128-14.848-19.968-16.384-28.672-5.12-52.224s20.48-44.032 39.936-64c32.768-35.328 62.976-74.752 98.816-109.568 19.456-18.944 27.136-18.432 53.248-22.016 23.552-3.584 46.08-8.192 70.144-13.312-23.04 2.048-45.568 3.072-67.584 3.584h-0.512c22.016-28.16 34.816-44.032 71.168-59.392 88.064-38.4 144.384-42.496 214.016 15.872 17.92 15.36 33.792 29.696 51.712 42.496-6.656 0.512-12.288 2.048-19.456 4.608 9.216-2.048 19.456 0 29.184 2.048 3.072 2.048 5.12 3.584 8.192 5.12 12.8 7.68 19.968 11.776 28.672 24.064 9.216 12.8 16.896 25.6 23.552 39.936-4.096-1.536-8.192-3.072-11.264-3.584-7.68-3.584-16.384-3.072-23.04 1.536l-0.512 0.512c-7.168 3.584-18.432 7.168-25.6 8.704 3.584 1.536 11.776 2.048 15.872 0 0.512 0 1.024-0.512 1.536-0.512-2.048 3.072-3.072 6.656-3.584 10.24-0.512 4.608 0.512 9.728 2.56 13.824 0.512 1.536 1.536 3.072 2.56 3.584-3.584 1.536-6.656 3.072-10.752 4.096 16.384-2.56 31.232-3.072 47.616-1.024 1.024 5.12 2.048 10.752 3.584 15.872l-5.632 0.512h-0.512c-7.68-6.144-16.384-5.12-27.648-2.56-34.816 8.192-26.624 27.648-43.008 57.344 16.896-20.48 15.36-41.984 43.008-48.64 6.144-1.536 10.752-3.584 14.848-3.072-7.68 3.584-14.336 10.752-17.408 17.92-7.68 20.992-3.072 39.424-11.264 58.88 10.24-17.92 11.264-34.816 19.968-53.76 3.584-6.656 15.36-17.408 23.04-17.92h6.144c2.048 11.776 3.072 23.552 2.56 33.28-1.536 17.92-5.632 44.032-8.704 54.272 9.216-11.776 13.312-36.864 17.92-54.784 4.096-18.944 3.584-40.96-0.512-60.416-5.12-27.136 23.04-23.04 39.424-35.328 11.776-9.728 19.968-24.576 31.232-34.816 11.264-10.752 27.648 4.608 32.256 15.36 18.944 45.056 26.624 115.712 22.016 161.28-5.12 50.688-30.208 106.496-74.752 131.584-57.344 28.672-124.928 9.728-181.76-9.728z m-81.408 225.28c-2.048 20.992-8.704 22.528-27.136 22.016-8.192 0-41.472-0.512-50.176-1.024-11.776-1.024-18.944-2.048-22.528-4.608 18.944-13.824 50.688-70.656 56.832-90.112 6.656-20.48 13.824-38.912 18.944-57.856 2.56 8.192 4.096 15.872 8.192 24.576 5.632 14.336 9.216 23.04 9.216 38.4l1.536 48.128c5.632 8.704 6.144 10.24 5.12 20.48z m-564.736-158.72c11.776 41.472 32.256 81.408 54.784 116.224v0.512c-1.536 5.632-3.072 11.264-6.144 16.384-16.384 21.504-56.832-10.24-69.12-22.016-12.8-13.312-21.504-28.672-23.552-43.52-1.536-10.752 0-11.264 7.168-18.944l30.208-30.72 6.656-17.92z m-22.528-259.072c-3.072 6.656-5.12 11.264-6.656 16.896-6.144 22.016 3.072 41.472-17.408 57.856 9.728 18.944 9.216 26.624 31.232 17.92 8.704-3.584 15.36-8.192 21.504-13.824-3.072 7.68-5.632 15.872-8.192 24.064-0.512 1.536-1.024 3.072-1.536 4.096-15.872 6.656-36.352 11.264-44.032-5.632-3.584-8.192-6.144-15.872-8.704-26.112-26.112-27.136 12.8-62.464 33.792-75.264z m12.8 28.672c-3.584-3.584-5.632-5.12-10.24-4.608 0.512-3.072 1.024-5.12 1.536-7.68 0.512-1.536 0.512-2.56 1.024-3.584 5.632 2.56 7.168 8.192 7.68 15.872z m776.192-100.352l3.072 6.144c-1.024 0.512-1.536 1.024-2.56 2.048-1.536-3.072-3.584-5.632-5.12-8.192h4.608zM303.616 426.496z m198.656 324.608z m233.472 69.632z m95.232-180.224zM264.192 458.752z m910.848 74.752zM173.056 452.096c4.096-46.592 13.312-66.56 46.592-101.888-41.984 29.184-52.224 42.496-46.592 101.888" p-id="26446"></path><path d="M161.792 414.208c4.608-20.992 8.704-28.672 21.504-46.08-20.48 14.336-23.04 20.48-21.504 46.08M650.24 120.832c-25.088 6.144-29.696 10.752-36.864 34.816 11.264-17.408 18.432-23.04 36.864-34.816" p-id="26447"></path><path d="M689.152 117.76c-49.152 11.776-64 20.48-80.384 78.336C629.76 153.6 645.632 138.24 689.152 117.76m106.496 208.384c5.12-23.552 14.848-46.08 50.688-63.488-47.616 12.8-56.832 32.768-50.688 63.488m305.664 2.048c28.16-10.24 41.984-33.28 49.152-59.904-11.264 22.528-28.16 41.472-51.712 52.736-12.288 6.144-20.48 3.584-34.304 3.072 13.824 3.584 23.04 8.704 36.864 4.096m-194.048 22.528c-3.584-7.68-10.24-13.312-18.432-16.384 7.168-3.584 13.824-7.68 18.944-12.288-15.872 7.168-33.792 5.12-47.616 14.336-11.776 8.192-28.16 33.792-40.448 44.032 8.704-3.584 17.408-9.216 25.088-15.36 0 11.776 6.656 23.04 17.408 28.16-4.096 5.632-8.192 12.288-10.752 18.944 23.04-27.136 56.32-47.616 87.04-56.32-8.704 0-18.944 1.536-29.696 4.608 1.536-3.072 0-6.144-1.536-9.728m-32.768 205.312c-1.024 7.168-3.072 15.872-3.584 23.04 3.072-8.192 6.656-17.408 10.24-25.088 3.584-8.192 5.632-8.704 13.312-12.8 5.632-3.072 15.36-7.168 20.992-10.24-5.632 1.024-15.872 3.072-21.504 3.584-15.36 2.56-16.896 6.656-19.456 21.504m-259.072-271.36c-17.92 17.408-34.304 77.312-40.448 101.376 8.704-19.456 30.208-75.264 46.592-89.6 4.608-3.584 7.68-6.144 11.264-8.192-11.776 19.456-11.264 25.088-6.656 51.2 3.584-26.624 12.8-37.376 28.16-57.344 16.896-4.096 32.768-9.216 49.664-15.872-19.456 2.56-38.912 4.096-58.368 6.144-15.872 1.024-18.432 0.512-30.208 12.288" p-id="26448"></path><path d="M855.04 386.048c-3.584-6.656-0.512-14.848 6.144-18.432 6.656-3.584 14.848-0.512 18.432 6.144 0.512 0.512 0.512 1.536 1.024 2.048-6.144 4.608-12.288 10.752-17.408 16.896-3.072-0.512-6.144-3.072-8.192-6.656m150.528-57.856c0.512-5.632 5.12-9.728 11.264-9.216s9.728 5.12 9.216 11.264c0 1.024-0.512 2.56-1.024 3.584-5.12 1.024-10.24 2.56-15.36 4.096-2.56-2.56-4.608-6.144-4.096-9.728" fill="#FFFFCC" p-id="26449"></path></svg>