<?xml version="1.0" standalone="no"?><!DOCTYPE svg PUBLIC "-//W3C//DTD SVG 1.1//EN" "http://www.w3.org/Graphics/SVG/1.1/DTD/svg11.dtd"><svg t="1722223688884" class="icon" viewBox="0 0 1024 1024" version="1.1" xmlns="http://www.w3.org/2000/svg" p-id="69324" xmlns:xlink="http://www.w3.org/1999/xlink" width="256" height="256"><path d="M299.2128 538.3168c-6.656-2.6112-9.216-5.2224-13.2096-6.5536-27.6992-10.496-46.2336-28.8256-50.176-58.9312-5.3248-32.768 3.9424-61.5936 35.6352-77.312 22.528-10.4448 47.5648-15.7184 71.3216-20.992 31.744-6.5024 63.4368-13.056 89.856-32.7168 43.6224-31.4368 63.4368-73.3184 64.768-125.696v-9.216c11.8784 7.8848 22.4768 27.5456 29.0816 52.4288 17.1008 69.4272-17.2032 141.4656-80.5888 168.96-30.4128 13.056-63.4368 13.056-95.1296 7.8336-10.5984-2.56-21.1456-2.56-31.744-2.56-14.5408 0-23.7568 11.776-22.4256 26.112 1.3312 13.1584 13.1584 26.2144 25.088 23.6544 6.6048-1.3312 14.5408-7.8848 18.4832-13.1584 1.3312-2.56-6.656-10.4448-9.216-15.6672-1.3312-1.3312-3.9936-2.6112-5.3248-3.9424 0-1.3312 1.3312-3.9424 1.3312-5.2736 6.656 2.6624 13.2096 3.9424 19.8144 6.6048 5.2736 2.56 10.5472 9.1136 17.2032 9.1136 15.872 1.3312 18.432 10.496 18.432 24.8832 0 44.544-21.0944 75.9808-62.0544 93.0304-13.2096 5.2224-26.4192 11.776-38.3488 19.6608-17.152 11.776-26.368 27.4944-23.7568 48.4352 2.6624 15.7184-5.2736 19.6608-19.8144 19.6608a7180.544 7180.544 0 0 0-169.1136-2.6112c-13.1584 0-15.872-7.8848-17.152-18.3808-5.2736-32.7168 27.7504-57.6 63.3856-48.4352 13.2608 3.9424 26.4704 9.1648 39.6288 11.776 7.936 1.3312 17.2032 3.9424 23.808 1.3312a41.7792 41.7792 0 0 0 21.1456-18.3808c2.6624-3.8912-5.2736-14.336-10.5984-19.6096-10.5472-11.776-25.088-19.6608-34.304-32.768-34.3552-43.2128-40.96-91.648-18.4832-141.4144 22.4256-49.7664 63.3856-74.6496 117.5552-79.9232 15.872-1.3312 31.744-3.9424 47.616-6.5536 3.8912-1.3312 7.8336-7.8336 11.8272-11.776-3.9936-3.9424-7.936-9.216-13.2096-10.496-7.936-1.3312-15.872 1.28-25.088 1.28-11.9296-1.28-23.7568-1.28-34.3552-5.2224-14.5408-5.2224-19.8144-18.3296-14.5408-34.048 2.4064-6.3488 4.1472-12.9536 5.2736-19.6608 19.8656 14.4384 42.2912 17.0496 64.768 9.216 9.216-2.6624 21.0944-10.496 25.088-19.6608 2.6624-6.5536-5.2736-18.3296-11.9296-24.8832-13.1584-13.1072-29.0304-23.6032-50.176-15.7184-11.8784 3.8912-21.1456 11.776-21.1456 27.4944-1.3312 1.28-2.6624 1.28-3.9424 2.6112-14.5408-14.336-29.0816-27.4944-42.2912-44.544-9.216-11.776-5.2736-20.992 7.936-26.112 36.9664-13.1584 72.6016-26.2656 109.6192-35.4304 21.1968-5.2224 43.6224-2.6112 66.048-2.6112 23.808 0 30.4128-10.496 18.5344-32.768-2.6624-3.9424-1.3312-14.3872 1.3312-15.7184 5.2736-2.56 15.872-3.8912 17.152 0 6.656 7.8336 13.2096 18.3808 11.8784 26.1632-2.6624 27.5456 7.936 49.8176 23.808 72.0896 48.8448 66.816 19.8144 158.5152-62.1056 187.2896-29.0816 10.496-62.0544 13.1072-93.7984 18.3296-48.896 7.8848-79.2576 32.768-88.4736 77.312-11.9296 53.6576 31.6928 110.0288 83.2 107.3664 3.9936-1.28 6.656-1.28 11.8784-3.8912z m439.808 120.7808h-88.7296c-4.096 0-8.2944-6.3488-12.4416-8.8576 5.5296-1.28 9.728-2.56 15.2064-1.28 5.5296 0 12.4928 2.56 20.7872 1.2288-22.1184-13.8752-13.824-27.8016 0-40.448-20.7872-2.56-45.7216 17.664-45.7216 36.6592 0 15.2064-8.2944 20.2752-22.1184 20.2752H448c-12.4928 0-26.368 0-27.6992-15.2064-1.4336-13.9264 12.4416-26.5728 29.0816-26.5728 9.728 0 19.4048 2.56 29.1328 2.56 6.8608 0 12.3904 0 19.3536-1.28 12.4416-2.56 13.824-7.6288 5.5296-16.4352a529.408 529.408 0 0 1-27.6992-30.4128c-31.8464-45.5168-4.1472-108.7488 51.2-118.8864 24.9856-5.0688 58.2656 12.6464 65.1776 35.4304 2.7648 8.8064 5.5296 18.944-8.3456 22.7328-12.4416 3.84-16.5888-5.0176-17.9712-15.1552-4.1472-16.4352-15.2576-22.784-31.8976-20.2752-13.824 1.28-22.1184 11.4176-22.1184 26.624 0 29.1328 15.2064 49.3056 42.9056 60.7232 31.8976 12.6464 63.744 8.8064 91.4432-11.4176 26.368-20.224 34.6624-51.8656 23.552-80.9472-11.0592-30.3616-42.9568-50.6368-78.9504-51.9168-18.0224 0-34.6624-2.5088-45.7216-20.224 35.9936-3.7888 70.656-11.4176 103.936-7.5776 71.9872 8.8064 119.1424 56.9344 130.2016 124.0064 2.7648 20.2752 5.5296 40.448 11.0592 59.4432 8.3456 36.6592 49.92 58.2144 84.5312 44.288 30.5152-11.4176 40.192-45.568 19.456-67.072a48.4864 48.4864 0 0 0-29.184-11.3664c-15.2064 0-20.736 12.6464-15.2064 25.2928 1.3824 3.7888 0 8.8576 0 13.9264-5.5296-2.56-13.824-5.0688-15.2064-8.8576-6.9632-13.9264-5.5296-27.8528 5.5296-39.2192 12.4416-12.6464 29.0816-16.4352 47.104-12.6464 26.3168 5.0176 45.7216 27.8528 48.4864 51.8656 6.912 60.7232-45.7216 102.5024-110.848 83.456-27.6992-5.0176-49.8688-20.1728-74.8032-30.3104a112.0256 112.0256 0 0 0-22.1696-5.12c1.3824 6.4 1.3824 12.6976 2.7648 19.0464 2.7648 3.7888 4.1472 7.5776 8.3456 13.9264z m49.8688 183.296c-38.4 44.032-86.1184 76.4928-141.824 99.84-52.9408 22.016-108.5952 33.6896-166.912 29.8496-153.7536-10.3936-272.9984-79.104-345.9072-216.576-2.6624-3.8912-3.9424-9.0624-6.656-14.2336-5.2736-14.2848-1.28-27.2896 11.9296-33.792 13.312-7.7312 27.8528-3.84 37.12 9.1136 15.872 22.016 29.184 44.0832 45.056 64.8704 67.584 85.5552 156.416 132.2496 265.0624 145.2032 106.0352 11.6736 201.4208-15.5136 287.5392-75.1616a54.272 54.272 0 0 0 14.592-9.1136z m-258.048-714.24c118.784 5.2224 213.6576 58.7264 284.416 156.672 16.4352 23.5008 30.3616 49.6128 43.008 75.776 8.8576 16.896 3.7376 28.672-10.1376 35.2256-12.6464 5.2224-24.0128-2.56-30.3616-19.6096-45.4656-134.5024-140.288-211.5072-271.7696-244.224-2.5088-1.2288-6.2976-1.2288-8.8576-2.56-2.5088 0-5.0176-1.3312-6.2976-1.3312z" fill="#FF6A00" p-id="69325"></path></svg>