<?xml version="1.0" standalone="no"?><!DOCTYPE svg PUBLIC "-//W3C//DTD SVG 1.1//EN" "http://www.w3.org/Graphics/SVG/1.1/DTD/svg11.dtd"><svg t="1722223277799" class="icon" viewBox="0 0 1024 1024" version="1.1" xmlns="http://www.w3.org/2000/svg" p-id="67137" xmlns:xlink="http://www.w3.org/1999/xlink" width="256" height="256"><path d="M529.066667 938.666667l-21.333334-8.533334s4.266667-115.2-38.4-123.733333c-25.6-29.866667 4.266667-1361.066667 102.4-4.266667 0 0-34.133333 17.066667-38.4 46.933334-8.533333 29.866667-4.266667 89.6-4.266666 89.6z" fill="#FFFFFF" p-id="67138"></path><path d="M529.066667 938.666667l-21.333334-8.533334s4.266667-115.2-38.4-123.733333c-25.6-29.866667 4.266667-1361.066667 102.4-4.266667 0 0-34.133333 17.066667-38.4 46.933334-8.533333 29.866667-4.266667 89.6-4.266666 89.6z" fill="#A6A385" p-id="67139"></path><path d="M541.866667 827.733333s200.533333-132.266667 153.6-401.066666c-42.666667-200.533333-149.333333-264.533333-162.133334-290.133334-12.8-17.066667-25.6-46.933333-25.6-46.933333l8.533334 550.4s-17.066667 166.4 25.6 187.733333" fill="#FFFFFF" p-id="67140"></path><path d="M541.866667 827.733333s200.533333-132.266667 153.6-401.066666c-42.666667-200.533333-149.333333-264.533333-162.133334-290.133334-12.8-17.066667-25.6-46.933333-25.6-46.933333l8.533334 550.4s-17.066667 166.4 25.6 187.733333" fill="#499D4A" p-id="67141"></path><path d="M494.933333 832s-187.733333-128-174.933333-349.866667c12.8-226.133333 145.066667-332.8 170.666667-354.133333 17.066667-17.066667 17.066667-25.6 17.066666-42.666667 12.8 25.6 8.533333 371.2 12.8 413.866667 4.266667 157.866667-12.8 302.933333-25.6 332.8z" fill="#FFFFFF" p-id="67142"></path><path d="M494.933333 832s-187.733333-128-174.933333-349.866667c12.8-226.133333 145.066667-332.8 170.666667-354.133333 17.066667-17.066667 17.066667-25.6 17.066666-42.666667 12.8 25.6 8.533333 371.2 12.8 413.866667 4.266667 157.866667-12.8 302.933333-25.6 332.8z" fill="#58AA50" p-id="67143"></path></svg>