<?xml version="1.0" standalone="no"?><!DOCTYPE svg PUBLIC "-//W3C//DTD SVG 1.1//EN" "http://www.w3.org/Graphics/SVG/1.1/DTD/svg11.dtd"><svg t="1722217729006" class="icon" viewBox="0 0 1024 1024" version="1.1" xmlns="http://www.w3.org/2000/svg" p-id="39124" xmlns:xlink="http://www.w3.org/1999/xlink" width="256" height="256"><path d="M582.467368 255.595789v36.97179s-18.593684 27.338105 5.847579 51.994947l29.197474 40.717474s38.763789-38.575158 44.597895-40.717474c5.847579-2.155789 32.916211-23.578947 7.962947-53.059368l-41.943579-44.476632-45.662316 8.569263z" fill="#FFBE83" p-id="39125"></path><path d="M617.498947 385.818947l-29.722947-41.256421c-23.363368-23.578947-6.898526-50.391579-5.834105-52.520421V255.056842h0.538947l45.648842-8.569263 41.943579 44.476632c9.027368 10.725053 12.220632 21.436632 9.566316 32.161684-3.193263 12.314947-13.810526 20.358737-17.51579 21.962105-5.322105 2.155789-44.085895 40.192-44.611368 40.730947z m-34.492631-129.68421v36.432842c0 0.538947-18.054737 27.338105 5.834105 51.456l29.197474 40.192c4.257684-3.759158 38.763789-38.588632 44.597894-40.730947 3.718737-1.616842 14.336-9.647158 16.990316-21.436632 2.667789-10.186105-0.525474-20.897684-9.552842-31.083789l-41.943579-44.476632-45.136842 9.647158z" fill="#000000" p-id="39126"></path><path d="M484.244211 792.576s10.617263 29.466947 17.515789 29.466947h19.119158s11.142737-1.077895 12.746105-22.501052c0.525474 0-24.427789 5.349053-49.381052-6.965895z" fill="#FFBE83" p-id="39127"></path><path d="M501.76 822.568421c-6.898526 0-17.515789-28.389053-18.054737-29.466947l-0.525474-1.077895 1.064422 0.538947c23.363368 11.264 46.187789 7.504842 48.842105 6.979369h0.538947v0.538947c-1.603368 21.423158-12.746105 22.501053-13.285052 22.501053H501.76z m-16.976842-29.466947c3.179789 8.582737 11.668211 28.402526 16.976842 28.402526h19.119158s10.617263-1.077895 12.207158-21.423158c-4.244211 0.538947-25.478737 3.745684-48.316632-6.979368z" fill="#000000" p-id="39128"></path><path d="M644.581053 792.576s14.874947 32.148211 12.220631 44.463158c0 0 22.824421 10.186105 37.160421-4.810105l7.976421-36.446316s-46.726737 6.426947-57.344-3.206737z" fill="#FFBE83" p-id="39129"></path><path d="M673.266526 840.798316h-3.718737c-7.437474-0.538947-13.271579-3.206737-13.271578-3.206737h-0.538948v-0.538947c2.654316-11.789474-12.207158-43.951158-12.207158-44.476632l-1.064421-1.616842 1.589895 1.077895c10.617263 9.647158 56.818526 3.206737 56.818526 3.206736h0.538948v0.538948l-7.976421 36.446316c-5.308632 6.965895-13.271579 8.569263-20.170106 8.569263z m-15.939368-3.745684c1.077895 0.538947 6.373053 2.681263 12.746105 3.206736 6.898526 0.538947 16.464842-0.538947 23.363369-8.030315l7.962947-35.907369c-5.308632 0.538947-44.058947 5.362526-55.754105-2.155789 2.654316 5.901474 13.810526 31.636211 11.681684 42.886737z" fill="#000000" p-id="39130"></path><path d="M262.831158 397.069474s-30.787368 9.121684-10.09179 31.083789c0 0 5.322105 5.901474 13.810527 5.362526 0 0 17.515789-8.569263 23.363368-9.647157 0 0 1.064421-8.569263 3.718737-8.04379 0 0-6.898526-1.603368-11.681684-4.823579 0-0.538947-18.054737-9.633684-19.119158-13.931789z" fill="#FFBE83" p-id="39131"></path><path d="M265.485474 434.054737c-7.949474 0-12.746105-5.362526-12.746106-5.362526-5.834105-6.426947-8.488421-12.328421-6.898526-17.690948 2.654316-9.633684 16.464842-13.931789 16.990316-13.931789h0.538947v0.538947c0.525474 2.681263 10.617263 8.582737 15.386948 11.789474 2.654316 1.616842 3.193263 2.155789 3.718736 2.155789 4.783158 3.206737 11.156211 4.810105 11.681685 4.810105v0.538948h-0.538948c-1.576421 1.077895-2.115368 5.901474-2.640842 7.504842v0.538947h-0.538947c-5.834105 1.077895-22.824421 9.647158-23.363369 9.647158-1.050947-0.538947-1.050947-0.538947-1.589894-0.538947z m-2.654316-36.446316c-2.115368 0.538947-13.797053 4.823579-16.451369 13.392842-1.603368 4.823579 1.050947 10.725053 6.898527 16.613053 0 0 5.308632 5.901474 13.271579 5.362526 1.589895-0.538947 16.990316-8.569263 23.363368-9.647158 0-1.077895 1.064421-5.888 2.654316-7.504842a48.141474 48.141474 0 0 1-10.617263-4.284631c-0.538947-0.538947-1.589895-1.077895-3.193263-2.142316-7.424-4.284632-14.861474-8.569263-15.925895-11.789474z" fill="#000000" p-id="39132"></path><path d="M358.4 399.764211s1.603368 23.04 42.482526 30.005894c0 0 6.898526 7.491368 1.589895 42.334316 0 0-16.976842 1.603368-30.261895-2.155789 0 0-31.851789-4.810105-43.533473-1.064421 0 0-15.400421 5.362526-19.119158 3.745684v-99.664842s14.861474-2.155789 23.888842 4.284631c0 0 4.257684 5.349053 7.437474 6.965895 0.538947 0 9.566316 6.426947 17.515789 15.535158z" fill="#FFBE83" p-id="39133"></path><path d="M311.686737 473.168842c-1.077895 0-1.603368 0-2.128842-0.538947v-100.20379h0.538947c0.525474 0 14.861474-2.155789 24.414316 4.284632 0 0 4.244211 5.362526 7.437474 6.965895 1.589895 0.538947 10.091789 6.965895 17.515789 15.535157 0 0 2.128842 23.04 41.943579 29.480422 0.538947 0.538947 6.912 8.043789 1.603368 42.873263v0.538947h-0.538947s-16.976842 1.603368-30.261895-2.155789c-0.538947 0-31.851789-4.810105-43.533473-1.064421-0.538947 0.538947-11.681684 4.284632-16.990316 4.284631z m-1.603369-1.077895c3.718737 1.077895 18.593684-3.745684 18.593685-3.745684 11.681684-3.745684 42.469053 1.077895 43.533473 1.077895 12.207158 3.206737 27.621053 2.142316 29.736421 2.142316 4.769684-31.622737-0.538947-40.730947-1.589894-41.795369-38.763789-6.440421-42.482526-28.402526-42.482527-30.019368-7.437474-8.569263-16.464842-14.996211-16.990315-15.535158-3.179789-1.616842-6.898526-6.426947-7.437474-6.965895-7.949474-5.901474-20.709053-4.284632-23.363369-4.284631v99.139368z" fill="#000000" p-id="39134"></path><path d="M733.790316 520.865684s21.234526-2.681263 22.298947 9.647158c0 0-11.681684 0.538947-14.861474 5.901474l-7.437473-15.548632z" fill="#FFBE83" p-id="39135"></path><path d="M741.227789 537.478737l-7.962947-16.613053h0.525474c0.538947 0 13.271579-1.616842 19.119158 3.759158 2.115368 1.603368 3.179789 3.745684 3.179789 6.426947v0.538948h-0.538947s-11.668211 0.538947-14.322527 5.888z m-6.912-16.074105l6.912 14.470736c3.179789-4.284632 12.207158-5.362526 14.336-5.362526-0.538947-2.142316-1.077895-4.284632-3.193263-5.362526-5.308632-4.823579-15.400421-4.284632-18.054737-3.745684z" fill="#000000" p-id="39136"></path><path d="M743.882105 532.655158s23.363368-8.569263 23.363369 12.867368l-23.363369 13.93179-4.783158-5.362527 4.783158-21.423157z" fill="#FFBE83" p-id="39137"></path><path d="M743.882105 559.993263l-5.308631-5.901474 4.769684-21.423157c0.538947 0 11.681684-4.298105 18.593684 0.525473 3.179789 2.681263 5.308632 6.426947 5.308632 12.328421l-23.363369 14.470737z m-4.257684-5.901474l4.257684 4.823579 22.824421-13.392842c0-5.362526-1.589895-9.647158-4.769684-11.789473-6.373053-4.284632-16.464842-1.077895-17.515789-0.538948l-4.796632 20.897684z" fill="#000000" p-id="39138"></path><path d="M744.421053 495.144421L734.315789 516.042105s15.939368 8.582737 13.810527 34.829474c0 0 30.800842-18.216421 35.031579 11.802947 0 0-1.050947 28.928-36.096 36.432842 0 0-30.787368 4.823579-41.943579-16.074105l-21.773474-60.025263c1.077895-0.538947-6.373053-16.074105 61.062737-27.863579z" fill="#FFBE83" p-id="39139"></path><path d="M739.624421 600.185263c-10.078316 0-27.082105-2.155789-35.031579-16.613052l-21.773474-60.564211v-0.538947c0-1.603368 0.538947-5.888 7.962948-11.250527 9.566316-6.426947 27.621053-11.789474 53.086316-16.613052h0.538947L734.315789 516.042105c1.077895 0.538947 4.257684 2.681263 7.437474 7.504842 3.193263 4.823579 6.898526 13.392842 6.373053 26.799158 3.179789-1.616842 15.925895-8.043789 25.478737-3.759158 5.322105 2.694737 8.501895 8.043789 9.566315 16.087579 0 0.538947-1.589895 29.466947-36.648421 36.97179 0.538947 0-2.640842 0.538947-6.898526 0.538947z m-55.740632-77.177263l21.76 60.025263c10.630737 20.358737 41.418105 16.074105 41.418106 16.074105 34.519579-7.504842 35.570526-35.907368 35.570526-35.907368-1.050947-7.504842-4.244211-12.853895-9.027368-15.535158-10.078316-4.823579-25.478737 3.745684-25.478737 3.745684l-0.538948 0.538948v-0.538948c1.077895-13.392842-2.640842-21.962105-5.834105-26.785684-3.718737-5.362526-7.437474-7.504842-7.437474-7.504842h-0.525473v-0.538947l9.566316-20.358737c-27.082105 4.823579-58.947368 13.392842-60.01179 26.785684 0.538947-0.538947 0.538947 0 0.538947 0z" fill="#000000" p-id="39140"></path><path d="M215.578947 773.807158s33.455158 17.152 138.576842 13.406316c0 0 10.091789 88.953263 27.621053 118.433684 0 0 28.658526 27.863579-6.386526 37.510737H296.286316s-45.136842-9.647158-55.754105-34.304c0 0.538947-24.953263-67.516632-24.953264-135.046737z" fill="#361206" p-id="39141"></path><path d="M283.014737 259.341474v485.537684l-0.538948 61.628631 3.193264 40.192 15.925894 26.785685h7.962948V259.368421z" fill="#AD7054" p-id="39142"></path><path d="M310.083368 874.037895h-8.488421l-15.925894-26.812632-3.193264-40.192 0.538948-61.628631V258.829474h27.607579v615.208421h-0.538948z m-8.488421-1.077895h7.437474V259.880421h-25.49221v484.998737l-0.538948 61.628631 3.193263 40.192 15.400421 26.260211z" fill="#000000" p-id="39143"></path><path d="M282.475789 806.507789s15.925895-22.501053 27.621053 0v40.192s-6.912-14.470737-23.902316 0l-3.718737-40.192z" fill="#361206" p-id="39144"></path><path d="M776.272842 394.927158c-0.538947-5.349053-2.667789-16.613053-14.874947-20.358737a5.753263 5.753263 0 0 1-4.244211-5.362526c-0.538947-6.965895-3.718737-20.897684-23.888842-30.544842-1.603368-0.538947-2.654316-2.155789-3.193263-3.220211-1.589895-4.823579-6.898526-16.613053-27.607579-27.863579 0 0-11.156211-6.965895-20.170105-12.328421-4.257684-2.681263-9.027368 1.077895-8.501895 5.362526 1.064421 10.186105 0 24.656842-12.746105 34.304l-39.814737 32.687158c-2.128842 2.142316-5.847579 1.616842-7.962947-0.538947-9.566316-10.186105-36.109474-38.588632-41.943579-52.520421a7.504842 7.504842 0 0 1 0-4.823579c2.654316-4.823579 7.949474-15.535158 12.207157-18.216421l-4.783157-1.077895h-3.17979c-5.308632 2.155789-23.363368 9.647158-37.699368 21.436632 0 0-0.538947 0-0.538948 0.538947-4.769684 4.823579-96.633263 93.776842-143.36 107.183158l-2.640842 8.030316 7.949474 1.616842s2.667789 28.402526-4.244211 36.971789a12.247579 12.247579 0 0 1-4.24421 3.759158c-2.654316 1.603368-3.718737 4.823579-2.115369 7.491369 0.525474 1.616842 1.589895 2.694737 3.17979 4.298105 1.064421 1.077895 3.179789 1.603368 4.783158 1.603368 5.834105-1.077895 22.298947-4.284632 32.91621-13.392842 1.589895-1.077895 3.179789-1.616842 4.783158-1.077894l4.244211 1.077894c1.589895 0.538947 3.179789 0 4.769684-1.077894l72.218947-53.584843c2.654316-2.155789 6.373053-1.616842 7.949474 1.077895 3.193263 4.271158 5.322105 13.392842-0.512 33.212632 0 0.538947-0.538947 1.616842-1.077895 2.155789-2.115368 2.128842-6.359579 8.030316-9.027368 14.457263 0 0-3.179789 3.759158 0 17.152v19.294316c0 1.616842 0.538947 3.206737 2.128842 4.284632 3.193263 3.220211 9.566316 10.711579 4.257684 21.962105-6.912 13.945263-25.492211 58.960842-28.146526 65.387789 0 0.538947-0.538947 1.077895-0.538948 1.616843l-2.640842 23.04v1.077894l-7.962947 28.389053s-8.501895 51.456-18.593684 57.882947l-2.654316 3.745685c-2.115368 2.694737-1.064421 6.965895 2.128842 8.582736 0.538947 0.538947 1.589895 0.538947 2.654316 1.077895 2.654316 1.603368 4.244211 4.810105 2.654316 8.030316-2.654316 5.362526-7.962947 13.931789-16.990316 23.04-2.654316 2.681263-2.128842 6.426947 0.538947 8.582737l3.705263 2.667789c1.589895 1.077895 2.654316 2.694737 2.654316 4.823579 0 4.298105 2.654316 13.406316 23.363369 25.19579 0.538947 0 0.538947 0.538947 1.064421 0.538947 5.834105 2.142316 59.472842 19.280842 89.734737-10.186105 1.589895-1.616842 4.244211-1.616842 6.373052-1.077895 0.525474 0 1.050947 0.538947 2.115369 0.538947h1.589894c2.128842-0.538947 6.912-3.220211 4.257685-16.613052 0 0-13.271579-4.823579 2.654315-18.216421 0 0 5.308632 5.349053 8.488421-71.27579 0 0 4.783158-77.177263 4.244211-82.000842-0.525474-4.284632 7.437474 72.353684 7.437474 72.353684s6.898526 70.197895-2.115369 104.501895c-0.538947 2.681263 0.525474 5.362526 2.654316 6.426947 2.115368 1.077895 4.244211 2.155789 6.359579 3.745685 0.538947 0 0.538947 0.538947 1.077895 0.538947 3.179789 2.694737 22.285474 19.294316 62.113684 15.009684 0 0 36.109474 2.142316 46.187789-15.548631 1.077895-2.142316 3.193263-3.206737 5.308632-2.66779 7.437474 0.538947 23.902316 1.603368 23.902316-5.901474 0 0 5.308632-5.888-19.644632-12.328421-4.783158-1.077895-5.847579-7.504842-1.603368-10.711579 5.308632-3.220211 7.437474-7.504842-2.115369-10.725052a5.739789 5.739789 0 0 1-3.193263-8.030316l12.220632-23.04c1.050947-1.616842 1.050947-3.233684 0-5.362526-2.654316-5.362526-7.437474-17.690947-7.437474-23.578948 0-1.616842-0.538947-2.694737-1.589895-3.759158l-10.091789-11.789473a5.820632 5.820632 0 0 1-1.589895-3.745684c0-3.759158-0.538947-11.789474-3.193263-19.294316-1.589895-3.745684 0.538947-7.504842-3.718737-7.504842-12.732632 0 1.603368-9.647158 2.66779-9.647158-4.783158-1.616842-9.027368-5.888-14.336-19.294316 0 0-9.027368-8.569263 1.050947-13.931789 0.538947-0.538947 1.603368-1.077895 2.128842-1.616843l6.898526-9.094736a6.521263 6.521263 0 0 0-0.538947-8.04379c-1.576421-1.616842-3.705263-4.823579-5.295158-9.647158 0-0.538947 0-0.538947-0.538947-1.077895-1.589895-3.206737-11.681684-23.04-13.271579-25.182315-1.064421-1.616842-0.538947-12.328421-0.538948-18.216421 0-2.681263 1.603368-4.823579 4.257685-5.362527a7.302737 7.302737 0 0 1 4.783157 0c3.718737 1.077895 22.824421-13.931789 53.086316-13.392842 2.654316 0 4.783158-1.616842 5.847579-3.759158l6.373053-17.677473v-0.538948l21.76-43.937684c0-0.538947 0.538947-1.077895 0.538947-1.616842 0.538947-4.284632 3.179789-23.04-8.488421-31.08379a10.172632 10.172632 0 0 1-1.077895-4.284631z m-72.218947 76.099368c0.538947 1.077895 0.538947 2.155789 0 3.220211L699.284211 489.229474l-0.538948-58.947369c0-2.142316 1.064421-4.284632 3.193263-5.349052l0.525474-0.538948c1.589895-1.077895 3.179789-2.681263 3.179789-4.823579v-12.867368c0-4.284632 4.257684-6.965895 7.976422-5.349053 4.244211 2.142316 9.552842 5.888 12.732631 12.853895 0.538947 1.616842 0.538947 3.220211 0 4.823579l-22.298947 43.951158c-0.538947 1.077895-1.064421 2.667789-0.538948 4.284631l0.538948 3.745685z" fill="#5A9247" p-id="39145"></path><path d="M521.943579 800.067368c-21.773474 0-40.353684-6.426947-41.418105-6.965894-0.538947 0-0.538947 0-0.538948-0.538948-19.631158-11.250526-23.349895-19.819789-23.349894-25.721263a5.12 5.12 0 0 0-2.654316-4.284631l-3.718737-2.681264c-1.589895-1.077895-2.128842-2.681263-2.654316-4.823579 0-1.603368 0.538947-3.206737 1.589895-4.823578 9.566316-9.647158 14.861474-18.755368 16.990316-23.04 1.589895-3.220211 0-5.888-2.654316-7.504843-0.538947 0-1.064421-0.538947-1.064421-0.538947-0.538947 0-1.064421-0.538947-1.589895-0.538947a8.326737 8.326737 0 0 1-3.193263-4.271158c-0.525474-1.616842 0-3.759158 1.077895-4.823579l2.640842-3.759158c10.091789-6.426947 18.593684-57.344 18.593684-57.344l7.949474-28.402526v-1.077895l2.667789-23.04c0-0.538947 0-0.538947 0.538948-1.077895v-0.525474c4.769684-11.789474 21.76-52.520421 28.133052-65.374315 3.718737-8.043789 2.115368-15.009684-4.257684-21.436632-1.589895-1.077895-2.115368-2.694737-2.115368-4.823579v-19.294316c-3.193263-12.867368-0.538947-16.613053 0-17.152 2.654316-6.426947 6.898526-12.328421 9.027368-14.470736 0.538947-0.538947 1.064421-1.603368 1.064421-1.603369 5.834105-19.833263 3.705263-28.941474 0.525474-32.687158-0.538947-1.077895-1.589895-2.155789-3.193263-2.155789a4.109474 4.109474 0 0 0-4.244211 1.077894l-72.744421 53.059369c-2.115368 1.077895-3.705263 1.616842-5.308632 1.077895l-3.705263-1.077895c-1.603368-0.538947-2.654316 0-4.257684 1.077895-7.424 6.426947-18.580211 10.711579-32.916211 13.392842a10.172632 10.172632 0 0 1-5.308631-1.616842c-1.589895-1.603368-2.654316-2.667789-3.17979-4.284632a6.076632 6.076632 0 0 1 2.115369-8.030316 12.247579 12.247579 0 0 0 4.24421-3.759158c6.373053-8.030316 4.257684-33.226105 4.257685-36.432842l-7.962948-1.616842 2.654316-8.569263c47.252211-13.392842 139.641263-103.437474 142.821053-107.183158 0-0.538947 0.538947-0.538947 0.538947-0.538947 9.552842-8.030316 22.824421-15.535158 37.685895-21.423158h3.193263l5.834105 1.064421-1.064421 0.538947c-3.705263 2.142316-7.949474 10.711579-10.617263 16.074106-0.538947 1.077895-1.050947 1.616842-1.050947 2.142315a5.928421 5.928421 0 0 0 0 4.284632c5.834105 13.931789 32.916211 42.873263 41.943579 52.520421 1.050947 1.077895 2.115368 1.616842 3.705263 1.616842 1.603368 0 2.667789-0.538947 3.718737-1.077895l39.82821-32.687158c10.091789-7.504842 14.336-18.768842 12.746105-33.765052-0.538947-2.155789 1.050947-4.284632 2.654316-5.901474a6.709895 6.709895 0 0 1 6.373053 0c9.027368 5.362526 20.170105 12.328421 20.170105 12.328421 18.593684 10.186105 25.492211 20.897684 27.621053 27.863579 0.525474 1.077895 1.576421 2.694737 3.179789 3.220211 18.580211 9.108211 23.349895 21.962105 24.414316 31.083789 0 2.681263 2.128842 4.284632 3.718737 4.823579 9.027368 2.681263 14.336 9.647158 15.400421 20.897684 0 1.077895 0.538947 2.681263 1.064421 3.745684 7.424 5.362526 10.617263 15.548632 8.488421 31.08379v0.538947c0 0.538947 0 0.538947-0.538947 1.077895v0.538947l-21.76 43.924211v0.538947l-6.373053 17.690948c-1.064421 2.694737-3.718737 3.759158-6.373053 3.759158h-1.589894c-20.170105 0-35.570526 6.965895-43.533474 10.711579-4.244211 1.616842-6.373053 3.220211-7.962948 2.681263a7.302737 7.302737 0 0 0-4.783157 0c-2.654316 0.538947-3.718737 2.155789-3.718737 4.823579v4.823579c0 4.823579 0 11.789474 0.538947 13.392842 1.589895 2.155789 11.681684 22.501053 13.271579 25.195789 0.538947 0.538947 0.538947 0.538947 0.538947 1.077895 1.050947 3.745684 3.179789 7.491368 5.295158 9.633684 2.128842 2.155789 2.128842 6.426947 0.538948 8.569263l-6.912 9.121684-1.050948 1.077895c-0.538947 0-0.538947 0.525474-1.077894 0.525474-2.640842 1.616842-4.230737 3.220211-4.769685 5.362526-0.538947 3.745684 3.718737 8.030316 3.718737 8.030316 5.834105 14.470737 10.091789 17.690947 14.336 19.294316l2.128842 0.538947h-2.654315c-1.077895 0-7.437474 4.823579-7.437474 6.965895 0 1.616842 2.654316 1.616842 4.769684 1.616842 3.193263 0 3.193263 2.128842 3.193263 3.745684 0 1.077895 0 2.681263 0.538948 3.745684 2.115368 6.965895 3.179789 14.470737 3.179789 19.294316 0 1.077895 0.538947 2.681263 1.589895 3.220211l10.091789 11.789473c1.064421 1.077895 1.589895 2.142316 1.589895 3.745685 0 5.901474 4.783158 18.216421 7.437474 23.578947 1.050947 2.155789 1.050947 4.284632 0 5.901474l-12.220632 23.04a5.928421 5.928421 0 0 0 0 4.284631c0.538947 1.616842 1.603368 2.681263 3.193263 3.220211 4.244211 1.616842 6.898526 3.206737 6.898527 5.362526 0 2.142316-1.589895 4.284632-4.783158 5.888a5.389474 5.389474 0 0 0-2.115369 5.901474c0.538947 2.142316 1.589895 3.206737 3.718737 3.745684 15.386947 3.745684 19.644632 8.043789 20.170105 10.186105 0.538947 1.077895 0 2.142316-0.538947 2.681263 0 1.077895-0.525474 2.667789-1.589895 3.206737-4.244211 4.284632-16.976842 3.220211-22.824421 2.694737-2.128842-0.538947-3.718737 0.525474-4.783158 2.66779-5.308632 9.108211-17.515789 12.867368-27.082105 14.470736-10.078316 1.616842-19.105684 1.077895-19.644632 1.077895-34.506105 3.745684-53.625263-8.043789-62.113684-15.009684-0.538947 0-0.538947 0-0.538947-0.538947a39.518316 39.518316 0 0 0-6.359579-3.745685c-2.128842-1.077895-3.193263-3.759158-2.654316-6.979368 9.027368-33.751579 2.115368-103.424 2.115369-104.488421 0 0-2.115368-18.229895-3.718737-36.446316-1.050947-9.108211-2.115368-18.216421-2.654316-25.195789 0-1.603368-0.538947-2.667789-0.538947-4.284632-0.525474 19.833263-4.230737 72.353684-4.230737 75.034947-2.654316 60.550737-6.373053 70.736842-8.488421 71.814737h-0.538948c-5.308632 4.810105-7.962947 8.569263-7.437473 12.314948 0.538947 3.759158 4.783158 5.362526 4.783158 5.362526 2.654316 13.931789-2.128842 16.613053-4.783158 17.152h-1.589895c-0.538947 0-1.064421 0-1.589895-0.538947h-0.538947c-1.064421 0-4.244211-1.077895-5.834105 1.077894-13.271579 14.996211-31.865263 19.280842-48.316632 19.280842z m-42.482526-8.569263c0.538947 0 0.538947 0 0.538947 0.538948 0.525474 0 57.869474 20.884211 89.195789-10.186106 2.128842-2.142316 5.308632-1.616842 6.898527-1.077894h0.538947c0.525474 0 0.525474 0.538947 1.050948 0.538947h1.603368c2.115368-0.538947 6.359579-3.206737 3.705263-16.074105-1.050947-0.538947-4.244211-2.142316-5.308631-5.888-0.525474-3.759158 2.128842-8.043789 7.962947-12.867369h0.538947s4.783158-0.538947 7.962948-70.736842c0-0.538947 4.783158-77.177263 4.24421-82.000842 0-0.538947 0-0.538947 0.538948-0.538947s0.538947 0.538947 0.538947 0.538947v0.538947c0.512 6.965895 7.410526 71.275789 7.410526 71.814737 0 0.538947 6.912 70.736842-2.115368 104.501895-0.538947 2.681263 0.538947 4.823579 2.654316 5.888 2.128842 1.077895 4.244211 2.155789 6.373052 3.759158 0.538947 0 0.538947 0 0.538948 0.538947 8.488421 6.965895 27.607579 18.216421 61.574736 14.996211 0.538947 0 36.109474 2.155789 45.67579-15.535158 1.050947-2.155789 3.179789-3.220211 5.834105-2.694737 5.308632 0.538947 18.054737 1.077895 22.298948-2.667789 1.064421-1.077895 1.064421-1.616842 1.064421-2.681264 0 0 0.538947-0.538947 0-2.142315-0.538947-2.155789-3.718737-5.888-19.644632-9.647158a5.793684 5.793684 0 0 1-4.244211-4.284632 7.006316 7.006316 0 0 1 2.654316-6.965895c3.179789-1.616842 4.769684-3.759158 4.244211-5.362526 0-1.616842-2.128842-3.220211-6.373053-4.823579-1.589895-0.538947-3.179789-1.616842-3.718737-3.22021a9.216 9.216 0 0 1 0-5.349053l12.220632-23.04a4.042105 4.042105 0 0 0 0-4.823579c-2.654316-5.362526-7.437474-17.690947-7.437474-23.578947 0-1.616842-0.538947-2.694737-1.589895-3.233684l-10.091789-11.776a5.820632 5.820632 0 0 1-1.589895-3.759158c0-4.823579-1.077895-12.314947-3.193263-19.280842-0.538947-1.616842-0.538947-2.694737-0.538947-3.759158 0-2.142316 0-3.220211-2.640842-3.220211-2.128842 0-3.193263 0-4.244211-0.538947-1.077895-0.538947-1.603368-1.064421-1.603368-2.128842 0-2.694737 4.783158-6.440421 7.437473-7.504842-5.308632-2.155789-9.027368-8.043789-13.797052-19.294316-0.538947-0.538947-4.257684-4.284632-3.718737-8.582737 0.538947-2.142316 2.115368-4.284632 4.769684-5.888l1.077895-1.077895c0.525474 0 0.525474-0.538947 1.050947-0.538947l6.898527-9.108211a5.780211 5.780211 0 0 0-0.538948-7.491368c-1.050947-1.077895-3.705263-3.759158-5.295158-9.647158 0-0.538947 0-0.538947-0.538947-0.538947-1.589895-3.220211-11.681684-23.04-13.271579-25.19579-1.064421-1.064421-1.064421-6.426947-0.538947-13.392842v-4.823579c0-2.681263 1.603368-5.349053 4.783157-5.888a7.302737 7.302737 0 0 1 4.783158 0c1.064421 0.538947 3.718737-1.077895 7.437474-2.694737 8.488421-3.745684 23.888842-10.711579 44.058947-10.711579h1.603369c2.115368 0 4.244211-1.603368 5.308631-3.745684l6.373053-17.690947v-0.538948l21.76-43.92421c0-0.538947 0-0.538947 0.538947-1.077895v-1.077895c2.115368-15.009684-1.064421-25.195789-8.488421-30.544842-0.538947-1.616842-1.077895-3.220211-1.077894-4.284631-1.050947-10.725053-5.834105-17.152-14.322527-19.833264-2.128842-0.538947-4.783158-2.681263-4.783158-5.888-0.538947-9.108211-5.308632-21.436632-23.888842-30.019368-1.603368-0.538947-2.654316-2.142316-3.193263-3.206737-2.128842-6.965895-9.027368-17.690947-27.621052-27.877052 0 0-11.142737-6.965895-20.170106-12.314948a4.783158 4.783158 0 0 0-5.308631 0 6.413474 6.413474 0 0 0-2.654316 4.823579c1.603368 14.996211-2.654316 27.324632-12.732632 34.829474l-39.82821 32.687158a5.995789 5.995789 0 0 1-4.244211 1.616842c-1.589895 0-3.193263-1.077895-4.24421-2.15579-9.027368-9.647158-36.109474-38.575158-41.957053-52.520421a9.162105 9.162105 0 0 1 0-5.349052c0.538947-0.538947 0.538947-1.616842 1.077895-2.15579 2.640842-5.349053 6.898526-12.853895 10.603789-15.535158l-3.705263-1.077894h-3.193263c-14.861474 5.901474-28.133053 13.406316-37.699368 21.450105-1.064421 1.077895-95.043368 93.237895-143.36 107.169684l-2.654316 7.504842 7.976421 1.616842v0.538948c0 1.064421 2.654316 28.389053-4.257684 37.510736a12.247579 12.247579 0 0 1-4.244211 3.745685 5.470316 5.470316 0 0 0-2.654316 3.22021c-0.538947 1.077895 0 2.667789 0.538948 3.745684 0.525474 1.616842 1.589895 2.681263 3.179789 4.284632 1.064421 1.077895 3.179789 1.616842 4.244211 1.616842 14.336-2.694737 25.492211-6.979368 32.91621-13.406316 2.128842-1.077895 3.718737-1.616842 5.308632-1.077894l4.257684 1.077894c1.589895 0.538947 2.654316 0 4.244211-1.077894l72.218947-53.584843c1.576421-1.077895 3.179789-1.616842 4.769684-1.077894 1.589895 0.538947 2.654316 1.077895 3.718737 2.694737 4.244211 5.888 4.244211 17.138526-0.538947 33.751579 0 0.538947-0.538947 1.616842-1.064421 2.155789-2.115368 2.128842-6.359579 8.030316-9.027369 14.457263 0 0-3.179789 3.759158 0 16.613053v19.294316c0 1.616842 0.538947 3.220211 2.128842 3.759157 6.898526 6.965895 7.962947 14.457263 4.244211 22.501053-6.359579 12.867368-23.349895 53.059368-28.133053 65.374316 0 0.538947 0 0.538947-0.538947 1.077895v0.538947l-2.654316 23.04v1.077895l-7.949474 28.402526c-0.538947 2.142316-8.501895 51.442526-18.593684 57.869474l-2.654316 3.759158c-1.064421 1.077895-1.064421 2.681263-1.064421 4.284631 0.538947 1.616842 1.589895 3.206737 2.654316 3.745684 0 0 0.538947 0.538947 1.077895 0.538948 0.525474 0 1.050947 0 1.576421 0.538947 2.654316 1.616842 4.783158 4.823579 2.654316 8.569263-2.115368 4.284632-7.424 13.406316-16.976843 23.04a6.117053 6.117053 0 0 0-1.603368 4.298106c0 1.603368 1.064421 2.681263 2.128842 3.745684l3.718737 2.681263c1.589895 1.077895 2.654316 3.220211 2.654316 5.362526 2.654316 2.681263 5.308632 11.789474 25.478737 23.04zM698.745263 491.924211v-2.681264l-0.538947-58.947368c0-2.681263 1.077895-4.823579 3.193263-5.888l0.538947-0.538947c2.115368-1.616842 3.179789-2.681263 3.17979-4.284632v-12.867368c0-2.142316 1.064421-4.284632 2.654316-5.349053a5.658947 5.658947 0 0 1 5.847579-0.538947c5.834105 3.206737 10.617263 7.504842 12.732631 12.853894a9.162105 9.162105 0 0 1 0 5.362527l-22.298947 43.951158c-0.538947 1.077895-1.064421 2.667789-0.538948 3.745684l0.538948 3.745684c0.538947 1.077895 0.538947 2.155789 0 3.759158l-5.308632 17.677474z m12.746105-90.556632a7.504842 7.504842 0 0 0-3.193263 1.077895 4.890947 4.890947 0 0 0-2.115368 4.271158v12.867368c0 2.142316-1.064421 3.745684-3.193263 5.362526l-0.525474 0.538948c-1.589895 1.064421-3.179789 2.667789-3.179789 4.810105l0.525473 56.279579 4.244211-12.867369c0.538947-1.077895 0.538947-2.155789 0-2.681263l-0.538948-3.745684c-0.525474-1.616842 0-3.220211 0.538948-4.284631L726.366316 419.031579a5.928421 5.928421 0 0 0 0-4.284632c-2.654316-5.362526-6.898526-9.647158-12.732632-12.867368-1.077895-0.538947-1.603368-0.538947-2.128842-0.538947z" fill="#000000" p-id="39146"></path><path d="M580.338526 288.282947s-6.898526 5.362526-10.617263 13.406316l-16.976842 30.005895 22.285474 2.142316-8.488421 18.216421 39.289263 22.501052c2.128842 1.077895 4.783158 1.077895 6.373052-0.525473a5.429895 5.429895 0 0 0 0.538948-8.04379c-9.027368-10.711579-31.865263-39.114105-35.058526-49.839158-3.705263-12.853895 5.308632-24.656842 6.373052-25.721263 1.077895-1.077895-3.718737-2.142316-3.718737-2.142316z" fill="#5A9247" p-id="39147"></path><path d="M609.010526 375.646316c-1.050947 0-2.115368-0.538947-3.179789-0.538948l-39.828211-22.501052v-0.538948l8.501895-17.690947-22.298947-2.155789 17.515789-30.531369c3.718737-8.043789 10.617263-13.406316 10.617263-13.406316 1.077895 0 3.718737 1.077895 4.257685 2.15579v1.064421s-10.091789 11.789474-6.373053 25.195789c3.179789 10.172632 23.363368 35.893895 35.031579 49.825685 1.077895 1.077895 1.603368 2.694737 1.603368 4.284631 0 1.616842-1.064421 3.233684-2.128842 4.298105-1.064421 0-2.654316 0.538947-3.718737 0.538948z m-41.943579-23.578948l38.76379 22.501053c1.589895 1.077895 4.244211 1.077895 5.834105-0.538947a8.663579 8.663579 0 0 0 2.128842-3.745685c0-1.616842-0.538947-2.694737-1.589895-3.759157-1.064421-1.616842-31.326316-37.510737-35.045052-49.839158-3.718737-12.328421 4.783158-24.117895 6.373052-26.260211 0-0.538947-1.589895-1.077895-3.193263-1.603368-1.050947 1.077895-6.898526 5.901474-10.617263 13.392842l-16.451368 29.480421 22.298947 2.142316v0.538947l-8.488421 17.677474z" fill="#000000" p-id="39148"></path><path d="M669.008842 287.218526s28.146526 16.074105 32.929684 18.216421l-4.257684 40.192-32.91621-3.745684 8.488421 29.466948-71.141053 11.789473s57.869474-47.157895 65.306947-60.011789c7.437474-12.867368 4.244211-28.402526-2.115368-32.700632l3.705263-3.206737z" fill="#5A9247" p-id="39149"></path><path d="M600.522105 383.676632l1.064421-1.077895c0.538947-0.538947 57.869474-47.157895 65.306948-60.01179 7.424-12.867368 3.718737-28.402526-2.128842-32.161684l-0.538948-0.538947 4.257684-3.745684c0.538947 0 28.146526 16.074105 32.916211 18.216421v0.538947l-4.244211 40.730947h-0.538947l-32.377263-3.745684 8.488421 29.466948h-0.538947l-71.68 12.328421z m65.306948-93.237895c3.179789 2.128842 5.308632 7.491368 5.834105 12.853895 0.538947 6.965895-0.525474 13.931789-4.244211 19.833263-6.898526 11.789474-55.754105 51.981474-64.242526 58.947368l69.025684-11.264-8.488421-29.466947h0.525474l32.390737 3.745684 4.24421-39.653053c-5.308632-2.681263-29.736421-16.074105-32.390737-18.216421l-2.654315 3.206737z" fill="#000000" p-id="39150"></path><path d="M402.472421 417.980632c3.718737-1.077895 9.027368-3.233684 12.746105-5.362527 2.654316-1.616842 5.834105-1.077895 7.437474 1.616842 6.373053 9.633684 19.644632 31.070316 20.695579 43.924211 0 1.616842-0.525474 2.694737-1.589895 3.759158l-5.834105 6.965895c-0.538947 0.538947-1.064421 1.077895-2.128842 1.616842l-29.736421 13.931789c-1.050947 0.538947-2.654316 0.538947-3.705263 0.538947l-5.322106-1.077894s6.373053-6.440421 3.718737-47.157895v-0.538947c0-1.077895-3.179789-11.789474-4.24421-16.074106 0.538947-3.220211 5.308632-1.616842 7.962947-2.155789z" fill="#5A9247" p-id="39151"></path><path d="M400.357053 485.497263l-6.373053-1.077895 0.538947-0.538947s6.359579-6.952421 3.705264-46.618947v-0.538948c0-0.538947-1.064421-4.810105-2.128843-8.569263-0.538947-2.681263-1.589895-5.349053-2.115368-7.504842 0.538947-2.667789 3.179789-2.667789 5.308632-2.142316h2.654315c4.244211-1.077895 9.027368-3.206737 12.746106-5.349052 3.179789-1.616842 6.359579-1.077895 7.949473 1.603368 7.437474 11.250526 19.658105 31.622737 20.709053 43.937684 0 1.616842-0.525474 2.694737-1.589895 4.298106l-5.834105 6.965894c-0.538947 0.538947-1.064421 1.077895-2.128842 1.603369l-29.736421 13.931789h-3.705263z m-4.783158-2.142316l4.783158 1.077895c1.050947 0 2.654316 0 3.705263-0.538947l29.736421-13.93179c1.064421-0.538947 1.589895-1.077895 2.128842-1.616842l5.834105-6.965895a4.890947 4.890947 0 0 0 1.589895-3.745684c-1.050947-12.867368-14.861474-34.829474-20.695579-43.951158-0.538947-1.077895-1.603368-2.142316-3.193263-2.142315-1.064421 0-2.654316 0-3.718737 0.538947-3.718737 2.155789-8.488421 4.284632-12.732632 5.362526h-3.193263c-2.654316 0-4.244211 0-4.783158 1.616842 0.538947 1.589895 1.077895 4.271158 2.128842 6.952421 1.589895 5.362526 2.128842 8.043789 2.128843 9.108211v0.538947c2.115368 35.907368-2.128842 45.541053-3.718737 47.696842z" fill="#000000" p-id="39152"></path><path d="M533.086316 391.181474s-9.027368 22.501053-12.746105 22.501052c0 0 49.92 36.985263 50.445473 41.808842l13.271579-39.127579-50.970947-25.195789z" fill="#5A9247" p-id="39153"></path><path d="M570.785684 457.094737v-1.616842c-0.538947-3.206737-30.261895-26.785684-50.445473-41.256421l-1.050948-0.538948h1.050948c2.667789 0 9.027368-13.392842 12.220631-22.501052v-0.538948h0.538947l51.496422 25.19579-13.810527 41.256421z m-49.381052-43.412211c6.912 5.362526 45.136842 33.765053 49.381052 40.730948l12.746105-38.049685-50.445473-24.656842c-1.064421 3.233684-7.949474 19.833263-11.681684 21.975579z" fill="#000000" p-id="39154"></path><path d="M657.866105 414.221474l7.949474 34.829473 43.546947-28.928-3.179789-23.04z" fill="#5A9247" p-id="39155"></path><path d="M665.829053 449.589895v-0.538948l-7.962948-35.368421h0.538948l48.842105-17.138526 3.179789 23.578947-44.597894 29.466948z m-7.437474-35.368421l7.962947 33.765052 43.008-28.402526-3.179789-22.501053-47.791158 17.138527z" fill="#000000" p-id="39156"></path><path d="M478.396632 646.265263c0 0.538947-0.538947 1.077895-0.538948 1.616842-1.576421 6.965895-14.848 63.232-25.465263 66.452211 0 0 4.769684 7.491368 10.078316 5.888l57.869474 8.043789h1.077894c2.115368 0 11.668211-1.077895 15.386948-10.186105l16.464842-57.882947c1.064421-3.206737-0.538947-5.888-3.718737-6.965895l-58.933895-20.358737c-2.654316-1.077895-5.847579 0-6.912 2.681263l-5.308631 10.711579z" fill="#5A9247" p-id="39157"></path><path d="M521.404632 728.791579h-1.064421l-57.869474-8.030316c-5.308632 1.616842-10.091789-5.901474-10.617263-5.901474l-0.538948-0.538947h0.538948c8.488421-2.667789 19.644632-42.859789 24.953263-65.913263 0-0.538947 0-0.538947 0.538947-1.077895v-0.525473l5.308632-10.711579c1.050947-2.694737 4.244211-4.298105 7.424-2.694737l58.933895 20.37221c1.603368 0.538947 3.193263 1.616842 3.718736 2.681263 0.538947 1.616842 1.077895 2.681263 0.538948 4.823579l-16.464842 57.869474c-3.718737 9.647158-15.400421 9.647158-15.400421 9.647158z m-58.933895-9.108211l57.869474 8.04379h1.077894s11.142737 0 14.861474-10.186105l16.451368-57.869474c0.538947-1.616842 0.538947-2.694737 0-3.759158a5.456842 5.456842 0 0 0-3.179789-2.681263l-58.933895-20.358737c-2.654316-1.077895-5.308632 0-6.373052 2.681263l-5.308632 10.711579c0 0.538947 0 0.538947-0.538947 1.077895v0.538947c-1.589895 6.426947-14.336 61.628632-25.478737 66.452211 1.064421 1.603368 5.308632 6.965895 9.566316 5.349052z" fill="#000000" p-id="39158"></path><path d="M486.898526 625.367579l-10.617263 18.216421c-2.128842 3.759158 0.538947 8.582737 4.769684 8.582737 15.939368 1.077895 47.791158 4.823579 65.845895 15.535158 3.179789 1.616842 6.898526 0 8.488421-3.206737l2.654316-9.121684a5.254737 5.254737 0 0 0-0.538947-4.823579c-3.705263-6.426947-18.041263-23.04-64.768-27.863579-2.654316-0.538947-4.769684 0.538947-5.834106 2.694737z" fill="#5A9247" p-id="39159"></path><path d="M549.551158 668.779789c-1.064421 0-2.128842 0-2.654316-0.538947-19.644632-11.789474-55.215158-15.009684-65.845895-15.535158-2.115368 0-3.705263-1.077895-5.308631-3.233684a6.885053 6.885053 0 0 1 0-6.413474l10.617263-18.229894c1.077895-2.142316 3.718737-3.206737 6.373053-2.681264 48.316632 4.823579 62.113684 22.501053 64.781473 27.877053 1.064421 1.603368 1.064421 3.206737 0.538948 5.349053l-2.66779 9.121684c-1.050947 2.667789-3.179789 4.284632-5.834105 4.284631z m-57.869474-46.08c-2.128842 0-3.193263 1.064421-4.257684 2.66779l-10.617263 18.216421a4.904421 4.904421 0 0 0 0 5.362526c1.064421 1.616842 2.654316 2.681263 4.24421 2.681263 10.630737 0.538947 46.201263 3.745684 65.845895 15.535158 2.654316 1.616842 6.373053 0 7.949474-3.206736l2.667789-9.108211c0.538947-1.616842 0.538947-3.220211-0.538947-4.298105-3.179789-5.349053-16.451368-22.501053-64.242526-27.863579-0.538947 0.538947-1.050947 0-1.050948 0z" fill="#000000" p-id="39160"></path><path d="M646.709895 657.515789c2.654316 8.043789 12.220632 34.842947 20.709052 51.456 1.064421 2.681263 3.718737 3.745684 6.373053 2.681264 11.681684-3.220211 43.008-10.725053 61.062737-8.582737 6.373053 1.077895 4.244211-2.681263 3.179789-4.823579a19.523368 19.523368 0 0 1-2.115368-16.613053c0.525474-2.142316 0.525474-4.284632-1.077895-5.888l-14.861474-16.613052a5.820632 5.820632 0 0 1-1.589894-3.759158c0-6.965895-0.538947-26.785684-10.617263-24.656842 0 0-34.506105-26.785684-61.062737 21.450105a9.162105 9.162105 0 0 0 0 5.349052z" fill="#5A9247" p-id="39161"></path><path d="M671.663158 712.717474c-0.525474 0-1.050947 0-2.115369-0.538948a5.470316 5.470316 0 0 1-2.654315-3.206737c-8.488421-16.613053-18.054737-43.412211-20.709053-51.456a9.162105 9.162105 0 0 1 0-5.349052c9.027368-16.074105 19.644632-25.734737 31.85179-28.402526 15.400421-3.220211 28.146526 5.349053 29.210947 6.426947 2.115368-0.538947 3.705263 0 5.308631 1.077895 3.718737 3.206737 5.834105 11.250526 5.834106 23.578947 0 1.077895 0.538947 2.667789 1.589894 3.206737l14.874948 16.613052c1.589895 1.616842 1.589895 3.759158 1.064421 6.440422-2.654316 7.491368 0 13.392842 2.115368 16.074105v0.538947c0.538947 1.603368 1.589895 3.206737 0.538948 4.284632-0.538947 1.077895-2.128842 1.077895-4.783158 0.538947-20.170105-2.694737-56.818526 7.491368-61.062737 8.569263 0.538947 1.077895 0 1.616842-1.064421 1.616842zM647.248842 657.515789c2.654316 8.043789 12.207158 34.842947 20.709053 51.456 1.050947 2.681263 3.179789 3.745684 5.834105 2.681264 4.244211-1.077895 40.879158-11.264 61.062737-8.582737 2.654316 0.538947 3.718737 0 3.718737-0.538948 0.525474-0.538947-0.538947-2.667789-1.077895-3.745684a19.105684 19.105684 0 0 1-2.115368-17.152c0.538947-2.681263 0.538947-4.284632-1.064422-5.349052l-14.861473-16.613053a6.117053 6.117053 0 0 1-1.589895-4.298105c0-12.314947-2.128842-20.358737-5.308632-23.04-1.603368-1.077895-2.654316-1.616842-4.783157-1.077895 0 0-13.271579-10.172632-28.672-6.426947-12.207158 2.694737-22.824421 11.789474-31.326316 27.877052a5.254737 5.254737 0 0 0-0.538948 4.810105z" fill="#000000" p-id="39162"></path><path d="M636.631579 638.760421l5.834105 11.264c1.589895 2.681263 4.783158 3.745684 7.437474 2.142316 10.078316-5.362526 33.441684-16.613053 61.574737-19.833263 9.027368-1.077895 14.874947-1.077895 3.193263-10.186106-5.308632-3.745684-10.078316-10.172632-12.732632-16.613052a5.901474 5.901474 0 0 0-7.437473-3.206737c-13.271579 5.362526-46.201263 18.755368-56.818527 28.941474-1.589895 2.667789-2.115368 5.349053-1.050947 7.491368z" fill="#5A9247" p-id="39163"></path><path d="M647.248842 653.231158h-1.077895a9.525895 9.525895 0 0 1-3.705263-2.681263l-5.834105-11.250527c-1.077895-2.142316-0.538947-4.823579 1.050947-8.030315 9.566316-9.121684 37.173895-20.911158 56.818527-28.941474 3.179789-1.077895 6.898526 0.538947 7.962947 3.206737 2.654316 6.440421 7.437474 12.867368 12.746105 16.613052 5.308632 3.759158 6.898526 6.440421 6.373053 8.04379-0.538947 1.616842-3.718737 2.155789-8.488421 2.681263h-1.616842c-25.465263 2.681263-47.238737 12.328421-61.574737 19.833263-0.538947 0.538947-1.603368 0.538947-2.654316 0.538948z m-10.091789-14.470737l5.834105 11.264c0.538947 1.077895 2.128842 2.142316 3.193263 2.681263 1.064421 0.538947 2.654316 0 3.718737-0.538947 13.797053-7.504842 36.109474-17.152 61.574737-19.833263h1.616842c3.705263-0.538947 7.410526-1.077895 7.949474-2.142316 0.538947-1.077895-1.589895-3.745684-6.373053-6.965895-5.308632-3.745684-10.078316-10.186105-12.732632-16.613052-1.077895-2.681263-4.257684-3.745684-6.912-3.220211-11.142737 4.823579-45.662316 18.755368-56.805052 28.941474a5.739789 5.739789 0 0 0-1.064421 6.426947z m-122.650948 142.012632a112.478316 112.478316 0 0 1-39.289263-6.965895c-19.119158-7.491368-30.261895-18.216421-30.261895-18.216421l0.538948-0.538948s10.603789 10.725053 29.722947 17.690948c17.515789 6.965895 46.187789 12.328421 82.297263-1.077895l0.538948 0.538947a115.725474 115.725474 0 0 1-43.546948 8.569264z m144.424421 5.901473c-9.027368 0-16.990316-1.077895-23.363368-2.155789-19.119158-3.206737-29.736421-9.633684-29.736421-9.633684l0.538947-0.538948s10.603789 6.426947 29.197474 9.647158c17.515789 3.220211 45.662316 3.759158 82.297263-8.569263v0.538947c-23.363368 8.030316-43.008 10.711579-58.933895 10.711579z" fill="#000000" p-id="39164"></path><path d="M736.970105 779.183158c-23.349895 0-44.597895-16.626526-45.136842-16.626526l0.538948-0.538948c0.538947 0 29.210947 22.501053 55.754105 15.009684v0.538948c-3.179789 1.077895-6.898526 1.616842-11.156211 1.616842zM485.322105 743.787789c-9.566316-5.888-15.939368-20.897684-15.939368-21.423157l0.538947-0.538948s6.373053 15.535158 15.925895 21.423158l-0.538947 0.538947z" fill="#000000" p-id="39165"></path><path d="M712.016842 469.962105s-19.644632 17.677474-12.207158 47.696842c0 0 33.455158-17.152 59.472842-14.470736 0 0 2.654316-18.755368 6.359579-19.833264-0.525474 0.538947-19.644632-13.931789-53.625263-13.392842z" fill="#5A9247" p-id="39166"></path><path d="M699.284211 518.197895c-7.437474-30.558316 12.207158-48.235789 12.207157-48.774737h2.128843c27.082105 0 44.058947 9.647158 49.906526 12.328421 0.538947 0.538947 1.589895 0.538947 1.589895 1.077895l1.589894-0.538948-1.064421 1.064421h-0.525473c-2.654316 1.077895-4.783158 12.328421-5.834106 19.294316v0.538948h-0.538947c-24.953263-2.155789-58.408421 14.457263-59.459368 14.99621z m12.732631-47.696842c-1.589895 1.603368-18.580211 18.741895-12.207158 46.618947 4.244211-2.155789 34.506105-16.613053 58.933895-14.470737 0.538947-2.681263 2.654316-16.613053 5.847579-19.294316-0.538947 0-0.538947-0.538947-1.077895-0.538947-5.834105-3.206737-22.824421-12.328421-49.893052-12.328421h-1.603369z m-109.904842 121.101473l-9.566316-20.358737V513.886316c11.695158-15.009684 9.566316-29.466947 9.566316-29.466948v-99.152842h1.064421v99.152842s2.654316 14.457263-9.566316 30.005895v56.805053l9.566316 19.294316 11.142737-6.965895 0.538947 0.538947-12.746105 7.491369z m-53.086316-56.805052l-25.49221-2.142316v-0.538947l0.538947-17.677474h27.594105v0.538947l-2.654315 19.81979z m-24.966737-3.206737l24.42779 2.142316 2.128842-18.229895h-25.492211l-1.064421 16.087579z" fill="#000000" p-id="39167"></path><path d="M590.430316 539.621053h-24.42779l5.322106-18.216421h21.76v0.538947l-2.654316 17.677474z m-23.363369-1.077895h22.298948l3.193263-16.074105h-20.709053l-4.783158 16.087579z m82.297264 1.077895h-29.197474v-16.074106h0.538947l28.658527-1.616842v17.690948z m-28.133053-1.077895h27.082105v-16.074105l-27.082105 1.616842v14.470737z m48.842105 4.298105l-3.179789-19.294316h0.538947l24.414316-8.569263v0.538948l-2.128842 20.88421-19.644632 6.440421z m-2.115368-19.294316l3.179789 18.216421 18.054737-6.426947 2.115368-19.833263-23.349894 8.043789z m89.734737 50.917053c-3.732211 0-6.912-1.077895-6.912-1.077895-4.783158-3.220211-7.437474-6.965895-7.962948-10.711579-0.538947-7.504842 7.437474-13.406316 7.962948-13.406315l0.538947 0.538947s-7.437474 5.888-7.437474 12.867368c0 3.745684 2.654316 6.965895 7.424 10.172632 0 0 11.681684 4.284632 18.593684-4.284632l0.525474 0.538948c-4.244211 4.284632-9.027368 5.362526-12.746105 5.362526z" fill="#000000" p-id="39168"></path><path d="M755.024842 568.562526a6.467368 6.467368 0 0 1-4.769684-2.155789 5.955368 5.955368 0 0 1-2.654316-5.349053c0-4.823579 5.834105-8.569263 5.834105-8.569263h0.538948v0.538947l8.488421 11.250527s-3.179789 3.745684-6.898527 4.284631h-0.538947z m-1.064421-15.009684c-1.050947 1.077895-5.308632 4.298105-5.308632 8.04379 0 1.616842 0.538947 3.220211 2.654316 4.823579 1.603368 1.616842 3.193263 2.142316 4.783158 1.616842 3.193263 0 5.308632-2.694737 6.373053-3.772632l-8.488421-10.711579z" fill="#000000" p-id="39169"></path><path d="M312.212211 430.295579s14.861474 5.362526 4.24421 20.911158c0 0-16.451368 25.721263-37.160421 13.931789 0 0-6.373053-4.298105-7.437474-9.647158 0 0 23.363368 5.888 29.736421-15.548631 0 0.538947 8.488421 1.077895 10.617264-9.647158z" fill="#FFBE83" p-id="39170"></path><path d="M290.438737 468.345263c-3.705263 0-7.424-1.077895-11.142737-3.206737-0.538947 0-6.373053-4.298105-7.437474-10.186105v-0.538947h0.538948c1.050947 0 22.824421 5.362526 29.197473-14.996211l0.538948-2.694737v2.694737c0.525474 0 2.115368 0 3.705263-0.538947 2.128842-1.077895 4.783158-3.220211 5.847579-8.582737v-0.538947h0.525474s5.847579 2.155789 7.962947 8.043789c1.064421 3.759158 0 8.582737-3.17979 13.93179-0.538947 0-11.156211 16.613053-26.543157 16.613052z m-18.054737-12.328421c1.603368 4.823579 6.912 8.582737 6.912 8.582737 20.170105 11.250526 36.634947-13.392842 36.634947-13.93179 3.179789-4.823579 4.244211-9.108211 3.17979-12.867368a12.180211 12.180211 0 0 0-6.898526-6.965895c-2.128842 8.582737-7.962947 10.186105-10.09179 9.647158h-0.538947c-5.834105 19.294316-25.465263 16.074105-29.184 15.535158z" fill="#000000" p-id="39171"></path><path d="M281.950316 415.824842s-29.210947 9.647158-21.773474 30.019369c7.437474 20.358737 35.045053 5.362526 35.045053 5.362526s9.566316-4.298105 10.617263-10.186105c1.064421-5.901474-23.888842-25.195789-23.888842-25.19579z" fill="#FFBE83" p-id="39172"></path><path d="M276.102737 457.094737a26.677895 26.677895 0 0 1-6.898526-1.077895 14.821053 14.821053 0 0 1-9.027369-9.633684c-1.589895-4.823579-1.589895-9.647158 0.538947-13.945263 5.308632-11.250526 20.695579-16.074105 21.76-16.613053 1.077895 0.538947 24.953263 19.294316 23.902316 25.734737-1.077895 5.888-10.630737 10.172632-10.630737 10.711579-1.050947-0.538947-10.617263 4.823579-19.644631 4.823579z m5.847579-40.730948c-1.589895 0.538947-15.925895 5.901474-20.709053 16.074106-2.128842 4.298105-2.128842 8.582737-0.538947 13.406316 1.603368 4.823579 4.783158 7.504842 8.501895 9.10821 10.617263 4.284632 25.492211-4.284632 26.017684-4.284632 0 0 9.566316-4.284632 10.617263-9.647157 0.538947-4.823579-16.976842-19.294316-23.888842-24.656843z" fill="#000000" p-id="39173"></path><path d="M304.774737 386.357895s-11.681684-16.613053-18.580211-16.074106l-11.142737-10.725052s-18.054737-3.745684-26.017684 4.823579c-4.783158 5.362526-7.437474 16.613053 4.769684 25.734737l18.054737 16.599579 12.746106 5.362526 20.170105-25.734737z" fill="#FFBE83" p-id="39174"></path><path d="M284.604632 412.618105l-13.271579-5.362526-18.054737-16.613053c-5.308632-3.745684-8.488421-8.569263-9.027369-13.931789-0.538947-4.284632 1.064421-9.108211 4.244211-12.328421 7.962947-8.569263 25.492211-5.362526 26.543158-4.823579l11.15621 10.725052c6.898526 0 18.054737 15.535158 18.593685 16.074106l-20.183579 26.26021z m-12.746106-6.426947l12.207158 5.349053 19.658105-25.19579c-1.603368-2.128842-11.681684-15.535158-17.515789-15.535158h-0.538947l-11.156211-10.711579c-1.589895-0.538947-18.054737-3.220211-25.478737 4.823579a15.791158 15.791158 0 0 0-3.718737 11.789474c0.538947 4.823579 3.179789 9.647158 8.488421 13.392842l18.054737 16.087579z" fill="#000000" p-id="39175"></path><path d="M316.456421 375.107368s-50.432 35.368421-38.224842 62.154106c12.207158 26.812632 39.289263-4.284632 38.224842-18.755369 0 0 5.308632-14.996211 7.962947-20.358737" fill="#FFBE83" p-id="39176"></path><path d="M290.977684 447.986526c-4.244211 0-9.566316-2.155789-13.271579-10.725052-12.220632-26.785684 36.109474-61.089684 38.224842-62.693053l0.538948 0.538947c-0.538947 0.538947-49.92 35.368421-38.238316 61.628632 3.718737 8.030316 9.027368 11.789474 15.925895 9.647158 11.156211-2.694737 22.298947-19.294316 21.773473-28.402526 0 0 5.308632-15.009684 7.962948-20.372211l0.538947 0.538947c-2.667789 4.823579-7.437474 19.294316-7.976421 20.358737 0.538947 9.647158-10.617263 26.273684-22.298947 28.941474-0.538947 0.538947-1.589895 0.538947-3.17979 0.538947z" fill="#000000" p-id="39177"></path><path d="M295.747368 436.736c-2.654316 0-6.359579-1.077895-9.552842-3.220211 0 0-4.244211-3.220211-4.24421-8.043789 0-3.206737 1.064421-5.888 4.24421-8.569263l23.363369 12.328421-0.538948 0.538947c0 0.538947-4.769684 6.965895-13.271579 6.965895z m-9.552842-18.755368c-2.654316 2.667789-3.718737 4.823579-3.718737 7.491368 0 4.298105 3.718737 7.504842 3.718737 7.504842 5.308632 3.220211 11.156211 3.759158 15.925895 1.077895 3.193263-1.616842 5.308632-3.759158 5.847579-4.823579l-21.773474-11.250526z" fill="#000000" p-id="39178"></path><path d="M499.105684 816.680421s4.244211 20.911158 0 35.368421c-4.769684 15.548632 27.621053 6.965895 21.773474 3.759158-3.718737-2.155789-2.128842-10.186105-3.718737-9.108211 0 0-4.244211-27.877053 3.718737-30.544842 7.962947-2.155789-9.566316 6.426947-21.773474 0.538948z" fill="#A94E00" p-id="39179"></path><path d="M508.133053 861.696c-2.128842 0-4.244211 0-5.834106-1.077895-2.654316-1.064421-5.308632-3.206737-3.718736-8.569263 4.244211-13.931789 0-34.829474 0-35.368421v-0.538947l0.538947 0.538947c6.885053 3.220211 14.861474 2.155789 19.631158 0.538947 0.538947-0.538947 1.077895-1.077895 2.128842-1.077894 2.128842-0.538947 2.128842-0.538947 2.654316 0v0.538947c-0.538947 0.538947-1.589895 1.077895-3.718737 1.616842-4.783158 5.349053-2.128842 25.182316-1.589895 28.402526 0.538947 0 0.538947 1.077895 0.538947 2.681264 0 2.142316 0.525474 5.349053 2.640843 6.426947 1.077895 0.538947 1.077895 1.616842 0.538947 1.616842-1.077895 1.589895-7.962947 4.271158-13.810526 4.271158z m-8.488421-44.463158c0.525474 3.745684 3.705263 21.962105 0 34.816-1.077895 3.759158 0 6.440421 3.179789 7.504842 5.847579 2.155789 17.515789-0.538947 18.593684-2.681263 0 0 0-0.538947-0.538947-0.538947-2.128842-1.603368-2.654316-4.810105-3.193263-6.952421 0-0.538947 0-1.616842-0.525474-2.15579l-0.538947 0.538948v-0.538948c0-1.077895-3.179789-21.423158 1.077894-28.402526-4.257684 0.538947-11.695158 1.077895-18.054736-1.603369z" fill="#000000" p-id="39180"></path><path d="M447.595789 915.833263s63.730526 20.345263 106.199579 0l5.308632-36.446316s-3.718737-45.541053-79.629474-34.829473c0 0-31.865263 7.491368-31.865263 39.653052v31.622737z" fill="#A94E00" p-id="39181"></path><path d="M507.607579 925.466947c-31.326316 0-59.472842-9.108211-59.998316-9.10821h-0.538947v-32.148211c0-32.161684 31.865263-40.192 32.390737-40.192 29.736421-4.284632 51.509895-0.538947 65.845894 11.250527 13.271579 10.725053 14.336 24.117895 14.336 24.117894l-5.308631 36.97179c-14.336 6.440421-30.800842 9.108211-46.726737 9.10821z m-59.472842-10.172631c4.783158 1.616842 64.781474 19.294316 105.660631 0l5.308632-36.446316s-1.064421-13.392842-13.797053-23.578947c-13.810526-11.250526-36.109474-15.009684-65.306947-10.711579-0.538947 0-31.326316 8.030316-31.326316 39.114105v31.622737h-0.538947z" fill="#000000" p-id="39182"></path><path d="M650.967579 830.612211s30.261895 13.406316 46.187789 0c0 0 4.244211 31.622737 14.861474 33.226105 0 0 15.939368 3.759158 35.570526-21.423158 0 0 55.754105-16.087579 66.371369 36.432842v33.765053s-9.552842 6.965895-41.404632 6.426947c0 0-66.371368 3.759158-142.295579 0 0 0-17.515789-19.819789 5.308632-43.412211 0 0 4.244211-24.117895 2.654316-33.212631l12.746105-11.802947z" fill="#A94E00" p-id="39183"></path><path d="M700.874105 921.195789c-21.248 0-45.136842-0.538947-70.615579-1.616842 0 0-17.515789-20.358737 5.308632-43.951158 0.538947-1.603368 4.244211-24.117895 2.654316-33.212631l12.746105-11.802947s7.424 3.233684 16.976842 4.823578c8.501895 1.616842 20.709053 2.155789 28.685474-4.823578l0.525473-0.538948v0.538948c0 0.538947 4.244211 31.083789 14.336 32.700631 0 0 15.925895 3.206737 35.031579-21.436631 0.538947 0 26.556632-7.504842 46.214737 4.823578 10.603789 6.426947 17.515789 17.138526 20.170105 32.148211v34.304c-0.538947 0.538947-9.566316 6.426947-38.238315 6.426947h-3.718737c1.077895 0-28.672 1.616842-70.076632 1.616842z m-70.615579-2.694736c74.859789 3.759158 141.231158 0 142.282106 0h3.193263c26.543158 0 36.109474-5.349053 37.699368-6.426948v-33.765052c-3.179789-14.470737-9.566316-25.182316-20.170105-31.609264-18.593684-11.789474-43.546947-5.362526-45.67579-4.823578-19.631158 25.195789-35.031579 21.423158-36.109473 21.423157-10.078316-1.603368-14.322526-27.863579-14.848-32.687157-6.373053 5.362526-16.464842 6.979368-28.672 4.823578-8.501895-1.603368-15.400421-4.284632-16.990316-4.823578l-12.220632 11.264c1.589895 9.108211-2.654316 32.148211-2.654315 33.226105-21.773474 23.04-6.898526 41.795368-5.834106 43.398737z" fill="#000000" p-id="39184"></path><path d="M479.461053 822.042947s11.681684-27.863579 20.183579 0c0 0 3.705263 22.501053 0 25.734737 0 0-11.681684-5.362526-20.183579 2.66779v-28.402527zM514.506105 846.686316v-14.996211s3.179789-20.358737 10.09179-18.755368c0 0 9.552842-7.504842 10.617263 25.195789 1.064421 32.687158 0 17.138526 0 17.138527s-5.847579-9.108211-20.709053-8.569264zM446.544842 910.470737s-14.861474 5.888-6.898526 22.501052c0 0 3.705263 8.582737 39.814737 8.582737 0 0 63.191579 4.823579 79.642947-4.823579 0 0 12.220632-13.931789-3.179789-26.273684 0 0 3.179789 10.186105-50.445474 8.582737-53.625263-1.616842-58.933895-8.569263-58.933895-8.569263zM650.967579 812.934737s5.834105 1.077895 5.308632 17.152c0 0 2.654316 4.284632 21.234526 4.284631 0 0 12.746105 21.423158-5.308632 29.466948-18.054737 8.043789-33.980632-8.569263-35.570526-16.074105-1.603368-7.504842-1.603368-29.466947 14.336-34.829474zM695.026526 812.934737s7.962947 19.294316-11.681684 21.423158c0 0 6.912 4.311579 4.257684 15.548631-2.654316 11.789474 6.898526 16.087579 6.898527 16.087579s13.797053-4.823579 10.617263-30.558316c0 0.538947-1.064421-14.996211-10.09179-22.501052zM627.604211 910.470737s-16.990316 21.423158 12.732631 27.324631c29.736421 5.901474 153.451789 3.220211 164.594526 0 11.156211-3.206737 27.621053-16.074105 7.437474-30.005894 0 0 4.244211 10.186105-89.734737 10.186105-0.525474-0.538947-63.703579 1.603368-95.029894-7.504842z" fill="#361206" p-id="39185"></path><path d="M610.613895 398.147368c0 5.025684 4.042105 9.108211 9.027368 9.108211 4.985263 0 9.027368-4.082526 9.027369-9.108211 0-5.039158-4.042105-9.108211-9.027369-9.10821-4.985263 0-9.027368 4.069053-9.027368 9.10821zM609.549474 448.525474c0 5.025684 4.042105 9.108211 9.027368 9.10821 4.985263 0 9.027368-4.082526 9.027369-9.10821 0-5.039158-4.042105-9.108211-9.027369-9.108211-4.985263 0-9.027368 4.069053-9.027368 9.108211zM607.420632 498.364632c0 4.729263 3.799579 8.569263 8.488421 8.569263 4.702316 0 8.501895-3.84 8.501894-8.569263a8.528842 8.528842 0 0 0-8.488421-8.582737 8.528842 8.528842 0 0 0-8.488421 8.582737z" fill="#D6E63B" p-id="39186"></path><path d="M564.951579 234.172632c1.589895 12.853895 3.179789 26.246737 4.24421 39.114105l30.261895 30.544842s16.990316 17.677474 22.298948 17.677474c5.308632 0 18.593684 3.759158 27.621052-11.789474 0 0 27.594105-28.402526 31.85179-38.588632V233.633684s14.336-2.681263 16.976842-21.423158v-21.450105s-10.603789 1.077895-15.912421 12.328421l-1.077895-24.117895-1.589895-38.575158-119.457684 6.426948v49.313684s-14.336-3.772632-15.925895-3.233684v4.823579l4.244211 2.155789 1.064421 20.884211c-1.064421 1.077895 9.566316 14.484211 15.400421 13.406316z" fill="#FFBE83" p-id="39187"></path><path d="M629.194105 322.048h-7.437473c-5.308632 0-21.773474-17.152-22.824421-17.690947l-30.275369-30.544842a713.283368 713.283368 0 0 0-4.24421-38.575158h-0.538948c-5.295158 0-13.258105-9.121684-14.861473-12.328421-0.525474-0.538947-0.525474-1.077895-0.525474-1.616843l-1.064421-20.345263-4.244211-2.155789v-5.362526h0.538948c1.589895-0.538947 12.207158 2.155789 15.386947 3.22021v-49.313684h0.538947l119.983158-6.426948v0.538948l1.603369 38.588631 1.064421 22.501053c5.308632-10.172632 15.386947-11.250526 15.386947-11.250526h0.538947v20.897684c-2.654316 17.152-14.874947 21.436632-16.990315 21.975579v37.510737c-4.257684 10.186105-30.800842 37.510737-31.865263 38.588631-5.834105 10.186105-14.336 11.789474-20.170106 11.789474z m-59.472842-48.774737l30.261895 30.558316s16.990316 17.677474 21.773474 17.677474h2.654315c6.373053 0.538947 16.990316 1.616842 24.42779-11.789474 0.538947-0.538947 27.621053-28.402526 31.851789-38.588632V233.633684h0.538948s14.336-2.681263 16.451368-20.88421v-20.911158c-2.115368 0.538947-10.617263 2.681263-15.386947 11.789473l-0.538948 1.616843-1.064421-25.734737-1.589894-38.049684-118.932211 6.426947v49.313684h-0.538947c-5.295158-1.077895-13.271579-3.220211-15.386948-3.22021v4.284631l4.244211 2.15579 1.064421 20.88421c0 0.538947 2.115368 3.759158 5.308631 7.504842 3.718737 3.759158 7.437474 5.901474 9.566316 5.362527h0.525474v0.538947c2.115368 11.250526 3.705263 25.195789 4.769684 38.588632z" fill="#000000" p-id="39188"></path><path d="M579.813053 198.790737l-3.17979 4.823579H573.978947l-1.077894-1.616842 2.667789-0.538948 5.308632-9.633684 7.437473 4.284632 7.949474 1.077894 1.603368 2.142316h5.308632v2.142316l4.783158-0.538947v2.681263l-12.220632-1.077895-1.064421-1.603368-8.488421 0.538947-4.24421-3.759158zM628.129684 203.614316l9.027369-5.901474 3.718736-3.745684s2.654316 3.220211 13.797053-2.15579h5.847579l8.488421 7.518316-2.654316 0.538948-5.308631-4.823579-11.142737 1.077894-11.681684 3.206737-7.437474 3.745684h-2.654316v0.538948zM607.959579 210.580211l3.179789-2.15579 3.718737 5.376v15.535158l-2.654316 18.216421 3.718737 2.155789h4.244211l2.128842-1.616842 5.834105-3.206736 5.308632 2.142315-1.589895 1.603369-3.718737-2.15579-5.834105 3.233684-2.128842 1.603369h-6.373053l-3.718737-2.681263 3.193264-19.833263 0.538947-11.250527-0.538947-3.22021-2.654316-3.745684z" fill="#1C0106" p-id="39189"></path><path d="M633.977263 212.722526l-0.538947-0.538947s15.925895-15.535158 29.736421-2.142316l-0.538948 0.538948c-5.834105-5.362526-12.207158-6.965895-19.105684-3.745685-5.847579 1.603368-9.566316 5.349053-9.566316 5.888zM601.586526 211.119158c-7.437474-5.901474-21.773474-1.077895-21.773473-1.077895v-0.538947c0.538947 0 15.400421-4.810105 22.837894 1.077895l-1.077894 0.538947z" fill="#000000" p-id="39190"></path><path d="M585.647158 213.261474c0 3.557053 2.856421 6.426947 6.373053 6.426947a6.4 6.4 0 0 0 6.373052-6.426947 6.4 6.4 0 0 0-6.373052-6.426948 6.4 6.4 0 0 0-6.373053 6.426948zM641.401263 211.119158c0 3.543579 2.856421 6.426947 6.373053 6.426947a6.4 6.4 0 0 0 6.373052-6.426947 6.4 6.4 0 0 0-6.373052-6.426947 6.4 6.4 0 0 0-6.373053 6.426947z" fill="#1C0106" p-id="39191"></path><path d="M637.682526 212.183579c0 0.592842 2.384842 1.077895 5.308632 1.077895 2.937263 0 5.308632-0.485053 5.308631-1.077895 0-0.592842-2.371368-1.077895-5.308631-1.077895-2.923789 0-5.308632 0.485053-5.308632 1.077895zM583.531789 212.183579c0 0.592842 2.371368 1.077895 5.308632 1.077895 2.937263 0 5.308632-0.485053 5.308632-1.077895 0-0.592842-2.371368-1.077895-5.308632-1.077895-2.937263 0-5.308632 0.485053-5.308632 1.077895z" fill="#FCFCFC" p-id="39192"></path><path d="M596.803368 265.242947h16.990316s7.962947 2.155789 13.810527 0c0 0 12.732632 0.538947 17.515789-3.22021 0 0-2.654316 10.186105-24.427789 12.328421 0.538947 0-18.580211 1.077895-23.888843-9.108211z" fill="#FFFFFF" p-id="39193"></path><path d="M619.115789 274.890105c-4.796632 0-18.593684-1.077895-22.837894-9.10821l-0.538948-0.538948h17.51579s7.976421 2.155789 13.810526 0c0 0 12.746105 0.538947 17.51579-3.22021l1.077894-0.538948-0.538947 1.077895c0 0.538947-3.179789 10.725053-24.953263 12.867369 0.538947-0.538947 0-0.538947-1.064421-0.538948z m-21.786947-9.10821c5.322105 9.108211 22.837895 8.569263 23.363369 8.569263 15.400421-1.616842 21.773474-7.504842 23.902315-10.711579-5.308632 2.681263-15.400421 2.681263-16.464842 2.681263-5.834105 2.142316-13.271579 0-13.810526 0h-16.976842v-0.538947z" fill="#000000" p-id="39194"></path><path d="M623.346526 283.459368c-9.552842 0-18.054737-4.823579-18.054737-4.823579l0.538948-0.538947s18.054737 10.725053 32.390737 0l0.538947 0.538947c-5.322105 3.220211-10.630737 4.823579-15.413895 4.823579z" fill="#606060" p-id="39195"></path><path d="M561.758316 227.732211l-0.538948-0.538948s-9.552842-8.569263-3.705263-18.755368l0.538948 0.538947c-2.128842 4.284632-2.667789 8.030316-0.538948 12.328421 1.064421 2.142316 2.654316 3.745684 3.17979 4.810105V208.976842l-7.424-8.043789 0.538947-0.538948 7.410526 8.04379v19.294316h0.538948zM685.999158 226.654316c-0.525474 0-1.050947-0.538947 0-2.681263 1.077895-3.206737 1.077895-5.888 0-8.030316-1.050947-2.155789-3.179789-2.155789-3.17979-2.15579h-0.538947v-6.426947l7.437474-9.647158 0.538947 0.538947-7.437474 9.647158v5.362527c0.538947 0 2.654316 1.077895 3.718737 2.681263 1.064421 2.142316 1.064421 4.823579 0 8.569263 1.064421-3.206737 3.179789-9.108211 2.654316-12.853895-0.538947-2.155789-1.589895-3.233684-3.193263-3.759158v-0.538947c2.128842 0.538947 3.193263 2.155789 3.718737 5.362526 0.538947 4.823579-3.179789 13.392842-3.718737 13.93179z" fill="#000000" p-id="39196"></path><path d="M552.205474 160.202105v27.877053l15.925894 17.138526v13.93179l4.783158 9.647158v-25.721264l-4.783158-8.569263s1.064421-21.962105 4.783158-25.195789c4.244211-3.206737 4.769684-14.996211 4.244211-16.074105-0.538947-1.077895 0.538947-21.423158 0.538947-21.423158l102.992842 25.182315-2.654315 30.005895 2.654315 9.647158-3.179789 9.108211 0.538947 23.578947 2.640842-4.284632V208.437895l5.308632-9.647158 9.027368-12.867369-2.654315-13.392842-1.589895-33.226105-128.485053-13.931789-10.105263 34.829473z" fill="#000000" p-id="39197"></path><path d="M548.486737 153.775158s-38.763789-16.074105-13.810526-45.541053c0 0 50.445474-45.568 136.986947-16.087579 0 0 55.754105 22.501053 48.855579 55.201685 0 0-1.064421 14.996211-22.837895 21.423157l-7.949474 6.979369s-50.445474-40.192-137.525894-13.406316l-3.718737-8.569263z" fill="#003D82" p-id="39198"></path><path d="M689.717895 176.289684c-0.538947-0.538947-13.271579-10.186105-36.109474-17.152-21.234526-5.901474-56.279579-10.186105-101.402947 3.206737h-0.538948l-3.705263-8.569263c-1.603368-0.538947-18.593684-8.569263-21.773474-21.962105-1.589895-7.518316 1.064421-15.548632 7.962948-24.117895 0 0 12.746105-11.802947 36.109474-19.294316 21.234526-6.965895 56.279579-12.328421 101.402947 3.206737 0 0 14.336 5.901474 27.082105 15.548632 16.990316 12.853895 24.953263 26.785684 21.773474 40.192 0 0-1.064421 14.996211-22.837895 21.962105l-7.949474 6.979368z m-79.104-23.578947c13.797053 0 28.133053 1.603368 43.008 5.888 21.234526 5.888 33.980632 15.009684 36.109473 16.613052l7.949474-6.965894c21.248-6.426947 22.298947-20.897684 22.298947-20.897684 2.128842-9.108211 0-23.578947-21.76-39.666527-12.746105-9.633684-26.543158-14.996211-27.082105-15.535158-44.597895-15.009684-79.117474-10.186105-100.877473-3.22021-22.837895 7.504842-35.570526 18.755368-36.109474 18.755368-6.898526 8.043789-9.566316 16.087579-7.962948 23.578948 3.179789 13.945263 21.234526 21.436632 21.234527 21.436631l3.718737 8.04379c16.464842-3.745684 37.173895-8.043789 59.472842-8.04379z" fill="#000000" p-id="39199"></path><path d="M572.375579 158.059789s78.592 18.229895 99.826526 26.799158c0 0 21.76 6.426947 25.478737 5.888 0 0 4.257684-6.965895-22.298947-21.962105-0.538947 0-48.316632-28.402526-103.006316-10.725053z" fill="#000000" p-id="39200"></path><path d="M697.155368 191.285895c-4.783158 0-24.427789-5.888-24.953263-5.888-21.234526-8.582737-98.762105-26.799158-99.826526-26.799158l-1.589895-0.538948 1.589895-0.538947c46.201263-14.996211 87.080421 2.155789 102.480842 10.186105 0.538947 0 0.538947 0.538947 0.538947 0.538948 16.976842 9.647158 21.76 16.074105 22.285474 19.833263 0.538947 1.603368 0 2.667789 0 2.667789 0 0.538947-0.538947 0.538947-0.538947 0.538948zM573.978947 158.059789c10.617263 2.694737 79.104 18.755368 98.223158 26.273685 0 0 20.170105 5.888 24.953263 5.888h0.538948v-2.15579c-0.538947-2.667789-4.783158-9.108211-22.312421-19.280842 0 0-0.538947 0-1.064421-0.538947-15.386947-7.504842-55.215158-24.117895-100.338527-10.186106z" fill="#000000" p-id="39201"></path><path d="M544.242526 151.093895s-35.570526-14.470737-7.962947-43.937684c0 0 56.805053-49.852632 144.949895-12.328422 0 0 42.469053 22.501053 39.814737 49.839158 0 0-6.373053 23.04-23.888843 22.501053 0 0-33.455158-48.235789-100.877473-38.575158 0 0.538947-46.726737 7.491368-52.035369 22.501053z" fill="#1D253A" p-id="39202"></path><path d="M607.959579 120.010105v5.362527h14.861474l-20.170106 18.755368v3.745684h27.082106v-3.745684h-15.939369l20.709053-19.833263v-4.284632zM652.557474 127.514947c-7.437474-1.616842-14.874947 2.681263-16.464842 9.647158-1.589895 6.965895 3.193263 13.931789 11.15621 15.535158 7.424 1.616842 14.861474-2.667789 16.451369-9.633684 1.603368-6.979368-3.179789-13.945263-11.142737-15.548632z m-4.257685 19.294316c-4.244211-1.077895-6.898526-4.823579-5.834105-8.043789a6.804211 6.804211 0 0 1 8.488421-4.823579c4.257684 1.077895 6.912 4.823579 5.847579 8.043789-0.538947 3.220211-4.244211 5.888-8.488421 4.823579zM683.883789 137.162105c-7.437474-2.681263-15.400421 0-17.515789 6.965895-2.128842 6.965895 1.050947 13.931789 8.488421 17.152 7.437474 3.206737 15.400421 0 17.51579-6.965895 2.654316-6.965895-1.064421-14.470737-8.488422-17.152z m-6.912 18.216421c-3.705263-1.603368-5.834105-5.349053-4.769684-9.10821 1.589895-3.745684 5.308632-4.823579 9.566316-3.745684 3.705263 1.616842 5.834105 5.349053 4.769684 9.10821-1.589895 3.220211-5.847579 4.823579-9.566316 3.745684z" fill="#FFFFFF" p-id="39203"></path></svg>